<svg width="79" height="79" viewBox="0 0 79 79" fill="none" xmlns="http://www.w3.org/2000/svg">
<path opacity="0.5" fill-rule="evenodd" clip-rule="evenodd" d="M10.8125 39.6553C10.8125 39.0065 11.0702 38.3843 11.529 37.9255C11.9878 37.4667 12.61 37.209 13.2588 37.209L43.4297 37.209V42.1016L13.2588 42.1016C12.61 42.1016 11.9878 41.8438 11.529 41.3851C11.0702 40.9263 10.8125 40.3041 10.8125 39.6553Z" fill="#1F514C"/>
<path d="M43.4297 59.2238C43.4301 59.7073 43.5738 60.1799 43.8426 60.5818C44.1115 60.9837 44.4934 61.2969 44.9401 61.4819C45.3868 61.6669 45.8784 61.7153 46.3526 61.6211C46.8269 61.5269 47.2626 61.2942 47.6047 60.9525L67.175 41.3822C67.6331 40.9235 67.8904 40.3018 67.8904 39.6535C67.8904 39.0052 67.6331 38.3835 67.175 37.9248L47.6047 18.3545C47.2626 18.0128 46.8269 17.7802 46.3526 17.6859C45.8784 17.5917 45.3868 17.6402 44.9401 17.8251C44.4934 18.0101 44.1115 18.3233 43.8426 18.7252C43.5738 19.1271 43.4301 19.5997 43.4297 20.0832V59.2238Z" fill="#1F514C"/>
</svg>
