<svg width="220" height="193" viewBox="0 0 220 193" fill="none" xmlns="http://www.w3.org/2000/svg">
<g clip-path="url(#clip0_88_672)">
<path d="M132.919 177.746C136.096 180.021 139.716 191.519 139.716 191.519C139.716 191.519 128.384 192.308 125.208 190.034C124.452 189.494 123.804 188.799 123.299 187.991C122.795 187.182 122.444 186.276 122.268 185.323C122.092 184.369 122.093 183.389 122.272 182.436C122.45 181.483 122.803 180.577 123.309 179.77C123.816 178.963 124.466 178.271 125.223 177.732C125.98 177.194 126.829 176.82 127.722 176.632C128.614 176.444 129.532 176.446 130.424 176.637C131.316 176.828 132.164 177.205 132.919 177.746Z" fill="#F1F1F1"/>
<path d="M139.843 191.435L139.666 191.586C133.19 182.909 123.418 179.911 123.32 179.882L123.381 179.648C123.48 179.678 133.32 182.694 139.843 191.435Z" fill="white"/>
<path d="M149.914 173.161C149.711 178.811 139.656 191.715 139.656 191.715C139.656 191.715 130.559 178.024 130.761 172.376C130.859 169.663 131.961 167.102 133.826 165.257C135.691 163.412 138.165 162.435 140.705 162.539C143.245 162.643 145.642 163.821 147.369 165.813C149.096 167.805 150.011 170.448 149.914 173.161Z" fill="#F1F1F1"/>
<path d="M139.839 191.812L139.543 191.698C144.415 177.248 140.627 162.772 140.589 162.628L140.891 162.535C140.93 162.681 144.746 177.257 139.839 191.812Z" fill="white"/>
<path d="M113.803 141.014H27.6231C26.0877 141.012 24.6158 140.359 23.5301 139.2C22.4445 138.04 21.8338 136.468 21.832 134.828V29.6236C21.8338 27.9835 22.4445 26.4111 23.5301 25.2514C24.6158 24.0917 26.0877 23.4394 27.6231 23.4375H113.803C115.339 23.4394 116.811 24.0917 117.896 25.2514C118.982 26.4111 119.593 27.9835 119.594 29.6236V134.828C119.593 136.468 118.982 138.04 117.896 139.2C116.811 140.359 115.339 141.012 113.803 141.014Z" fill="#E6E6E6"/>
<path d="M109.776 135.855H31.6497C30.2864 135.853 28.9795 135.274 28.0155 134.244C27.0516 133.214 26.5094 131.818 26.5078 130.362V34.0824C26.5094 32.6262 27.0516 31.2301 28.0155 30.2004C28.9795 29.1707 30.2864 28.5915 31.6497 28.5898H109.776C111.139 28.5915 112.446 29.1707 113.41 30.2004C114.374 31.2301 114.916 32.6262 114.918 34.0824V130.362C114.916 131.818 114.374 133.214 113.41 134.244C112.446 135.274 111.139 135.853 109.776 135.855Z" fill="white"/>
<path d="M106.672 42.293H67.2599C67.0909 42.2932 66.9236 42.2579 66.7674 42.189C66.6112 42.1201 66.4693 42.019 66.3498 41.8915C66.2302 41.764 66.1354 41.6125 66.0707 41.4458C66.006 41.2791 65.9727 41.1004 65.9727 40.9199C65.9727 40.7394 66.006 40.5607 66.0707 40.394C66.1354 40.2273 66.2302 40.0759 66.3498 39.9483C66.4693 39.8208 66.6112 39.7197 66.7674 39.6508C66.9236 39.5819 67.0909 39.5466 67.2599 39.5469H106.672C106.841 39.5466 107.008 39.5819 107.165 39.6508C107.321 39.7197 107.463 39.8208 107.582 39.9483C107.702 40.0759 107.797 40.2273 107.861 40.394C107.926 40.5607 107.959 40.7394 107.959 40.9199C107.959 41.1004 107.926 41.2791 107.861 41.4458C107.797 41.6125 107.702 41.764 107.582 41.8915C107.463 42.019 107.321 42.1201 107.165 42.189C107.008 42.2579 106.841 42.2932 106.672 42.293Z" fill="#E4E4E4"/>
<path d="M106.67 47.7189H67.2581C66.9172 47.7189 66.5902 47.5742 66.3491 47.3167C66.1081 47.0592 65.9727 46.7099 65.9727 46.3458C65.9727 45.9816 66.1081 45.6323 66.3491 45.3748C66.5902 45.1173 66.9172 44.9727 67.2581 44.9727H106.67C107.011 44.9727 107.338 45.1173 107.579 45.3748C107.82 45.6323 107.956 45.9816 107.956 46.3458C107.956 46.7099 107.82 47.0592 107.579 47.3167C107.338 47.5742 107.011 47.7189 106.67 47.7189Z" fill="#E4E4E4"/>
<path d="M84.3424 53.1486H67.2581C66.9172 53.1486 66.5902 53.0039 66.3492 52.7464C66.1081 52.4889 65.9727 52.1396 65.9727 51.7754C65.9727 51.4113 66.1081 51.062 66.3492 50.8045C66.5902 50.547 66.9172 50.4023 67.2581 50.4023H84.3424C84.6833 50.4023 85.0103 50.547 85.2513 50.8045C85.4924 51.062 85.6278 51.4113 85.6278 51.7754C85.6278 52.1396 85.4924 52.4889 85.2513 52.7464C85.0103 53.0039 84.6833 53.1486 84.3424 53.1486Z" fill="#E4E4E4"/>
<path d="M101.917 75.0586H39.6974C39.5284 75.0588 39.3611 75.0235 39.2049 74.9546C39.0488 74.8857 38.9068 74.7846 38.7873 74.6571C38.6677 74.5296 38.5729 74.3781 38.5082 74.2114C38.4435 74.0447 38.4102 73.866 38.4102 73.6855C38.4102 73.5051 38.4435 73.3264 38.5082 73.1596C38.5729 72.9929 38.6677 72.8415 38.7873 72.714C38.9068 72.5864 39.0488 72.4853 39.2049 72.4165C39.3611 72.3476 39.5284 72.3122 39.6974 72.3125H101.917C102.086 72.3122 102.254 72.3476 102.41 72.4165C102.566 72.4853 102.708 72.5864 102.827 72.714C102.947 72.8415 103.042 72.9929 103.106 73.1596C103.171 73.3264 103.204 73.5051 103.204 73.6855C103.204 73.866 103.171 74.0447 103.106 74.2114C103.042 74.3781 102.947 74.5296 102.827 74.6571C102.708 74.7846 102.566 74.8857 102.41 74.9546C102.254 75.0235 102.086 75.0588 101.917 75.0586Z" fill="#E4E4E4"/>
<path d="M101.919 80.4845H39.6995C39.3586 80.4845 39.0316 80.3398 38.7906 80.0823C38.5495 79.8248 38.4141 79.4756 38.4141 79.1114C38.4141 78.7472 38.5495 78.398 38.7906 78.1405C39.0316 77.8829 39.3586 77.7383 39.6995 77.7383H101.919C102.26 77.7383 102.587 77.8829 102.828 78.1405C103.069 78.398 103.205 78.7472 103.205 79.1114C103.205 79.4756 103.069 79.8248 102.828 80.0823C102.587 80.3398 102.26 80.4845 101.919 80.4845Z" fill="#E4E4E4"/>
<path d="M101.919 92.7969H39.6994C39.3585 92.7969 39.0316 92.6522 38.7905 92.3947C38.5495 92.1372 38.4141 91.788 38.4141 91.4238C38.4141 91.0597 38.5495 90.7104 38.7905 90.4529C39.0316 90.1954 39.3585 90.0508 39.6994 90.0508H101.919C102.26 90.0508 102.587 90.1954 102.828 90.4529C103.069 90.7104 103.204 91.0597 103.204 91.4238C103.204 91.788 103.069 92.1372 102.828 92.3947C102.587 92.6522 102.26 92.7969 101.919 92.7969Z" fill="#E4E4E4"/>
<path d="M101.919 98.2267H39.6995C39.3586 98.2267 39.0316 98.082 38.7906 97.8245C38.5495 97.567 38.4141 97.2177 38.4141 96.8536C38.4141 96.4894 38.5495 96.1401 38.7906 95.8826C39.0316 95.6251 39.3586 95.4805 39.6995 95.4805H101.919C102.26 95.4805 102.587 95.6251 102.828 95.8826C103.069 96.1401 103.205 96.4894 103.205 96.8536C103.205 97.2177 103.069 97.567 102.828 97.8245C102.587 98.082 102.26 98.2267 101.919 98.2267Z" fill="#E4E4E4"/>
<path d="M101.919 110.543H39.6994C39.3585 110.543 39.0316 110.398 38.7905 110.141C38.5495 109.883 38.4141 109.534 38.4141 109.17C38.4141 108.806 38.5495 108.457 38.7905 108.199C39.0316 107.942 39.3585 107.797 39.6994 107.797H101.919C102.26 107.797 102.587 107.942 102.828 108.199C103.069 108.457 103.204 108.806 103.204 109.17C103.204 109.534 103.069 109.883 102.828 110.141C102.587 110.398 102.26 110.543 101.919 110.543Z" fill="#E4E4E4"/>
<path d="M101.919 115.969H39.6995C39.3586 115.969 39.0316 115.824 38.7906 115.567C38.5495 115.309 38.4141 114.96 38.4141 114.596C38.4141 114.232 38.5495 113.882 38.7906 113.625C39.0316 113.367 39.3586 113.223 39.6995 113.223H101.919C102.26 113.223 102.587 113.367 102.828 113.625C103.069 113.882 103.205 114.232 103.205 114.596C103.205 114.96 103.069 115.309 102.828 115.567C102.587 115.824 102.26 115.969 101.919 115.969Z" fill="#E4E4E4"/>
<path d="M101.905 130.996H84.8206C84.4797 130.996 84.1527 130.852 83.9117 130.594C83.6706 130.337 83.5352 129.987 83.5352 129.623C83.5352 129.259 83.6706 128.91 83.9117 128.652C84.1527 128.395 84.4797 128.25 84.8206 128.25H101.905C102.246 128.25 102.573 128.395 102.814 128.652C103.055 128.91 103.19 129.259 103.19 129.623C103.19 129.987 103.055 130.337 102.814 130.594C102.573 130.852 102.246 130.996 101.905 130.996Z" fill="#6C63FF"/>
<path d="M56.3444 46.5094C56.3479 49.4582 55.4134 52.3207 53.694 54.6277C53.1379 55.3786 52.5048 56.0605 51.8065 56.6607C49.9008 58.3121 47.5725 59.3097 45.1267 59.5227C44.7938 59.5535 44.4582 59.5675 44.12 59.5675C43.4498 59.5677 42.7808 59.5087 42.1198 59.3911C41.8865 59.3519 41.6584 59.3043 41.4303 59.2483C41.0333 59.1539 40.6413 59.0371 40.2559 58.8983C39.006 58.4539 37.832 57.7956 36.7796 56.9492C36.4992 56.7252 36.2292 56.4871 35.9671 56.2351C35.6464 55.9313 35.3427 55.6078 35.0573 55.2662C34.9813 55.1766 34.9052 55.0842 34.8319 54.9918C33.5527 53.3925 32.6543 51.4867 32.2131 49.4367C31.7718 47.3867 31.8009 45.2532 32.2978 43.2177C32.7946 41.1823 33.7446 39.3053 35.0667 37.7464C36.3889 36.1876 38.0441 34.9931 39.8914 34.2647C41.7388 33.5363 43.7235 33.2956 45.6768 33.5629C47.63 33.8303 49.4938 34.5979 51.1095 35.8003C52.7252 37.0028 54.045 38.6045 54.9564 40.4691C55.8679 42.3337 56.3441 44.4059 56.3444 46.5094Z" fill="#E4E4E4"/>
<path d="M43.697 50.9602C46.4636 50.9602 48.7065 48.5644 48.7065 45.609C48.7065 42.6536 46.4636 40.2578 43.697 40.2578C40.9303 40.2578 38.6875 42.6536 38.6875 45.609C38.6875 48.5644 40.9303 50.9602 43.697 50.9602Z" fill="#9E616A"/>
<path d="M49.2742 43.0038C49.2969 42.5256 49.1706 42.0529 48.915 41.6596L48.7341 41.3852C48.0813 40.041 47.0039 38.8313 46.2148 37.9463C45.6223 37.2827 45.0299 36.9634 44.4609 36.9942C44.0469 37.0258 43.6614 37.2312 43.3887 37.5655C42.6395 37.5166 41.8932 37.7023 41.2413 38.0997C40.5894 38.4971 40.0602 39.0891 39.7186 39.803C37.3199 41.1555 38.0355 45.1489 38.0434 45.1909L38.6228 46.2298L38.6884 46.0982C38.6884 46.0954 38.6962 46.0842 38.7067 46.0618C38.8195 45.8462 39.4329 44.6476 39.8471 43.8887C39.9983 43.6299 40.1994 43.4084 40.4369 43.239C40.8249 42.9559 41.2708 42.7763 41.7372 42.7154L43.0113 42.5389L42.5289 43.3118H45.9998L47.3341 43.1438C47.4679 43.7291 48.527 46.0002 48.6554 46.2746L48.6659 46.297L48.7367 46.451L49.1326 45.2889C49.3637 44.553 49.4125 43.7658 49.2742 43.0038Z" fill="#2F2E41"/>
<path d="M36.818 56.9769C37.0329 56.6745 38.1471 55.2631 40.711 54.5154L42.0689 52.8996L47.5139 51.9727L50.2848 53.6081L53.6955 54.6274C53.1394 55.3783 52.5063 56.0602 51.808 56.6605C49.9023 58.3118 47.574 59.3094 45.1283 59.5225C44.7953 59.5533 44.4598 59.5673 44.1216 59.5673C43.4514 59.5674 42.7824 59.5084 42.1213 59.3908C41.888 59.3516 41.66 59.304 41.4319 59.248C41.0349 59.1536 40.6428 59.0368 40.2574 58.898C39.0217 58.4594 37.8603 57.8107 36.818 56.9769C36.8048 56.9685 36.7944 56.9573 36.7812 56.9489L36.818 56.9769Z" fill="#6C63FF"/>
<path d="M140.152 7.43249H1.27788C1.07164 7.43225 0.873917 7.34462 0.728085 7.18884C0.582253 7.03306 0.500225 6.82185 0.5 6.60155V1.71375C0.500225 1.49344 0.582253 1.28223 0.728085 1.12645C0.873917 0.970674 1.07164 0.883053 1.27788 0.882812H140.152C140.358 0.883053 140.556 0.970674 140.702 1.12645C140.848 1.28223 140.93 1.49344 140.93 1.71375V6.60155C140.93 6.82185 140.848 7.03306 140.702 7.18884C140.556 7.34462 140.358 7.43225 140.152 7.43249Z" fill="#6C63FF"/>
<path d="M5.01455 5.09772C5.62449 5.09772 6.11894 4.56954 6.11894 3.918C6.11894 3.26646 5.62449 2.73828 5.01455 2.73828C4.40461 2.73828 3.91016 3.26646 3.91016 3.918C3.91016 4.56954 4.40461 5.09772 5.01455 5.09772Z" fill="white"/>
<path d="M9.20596 5.09772C9.8159 5.09772 10.3103 4.56954 10.3103 3.918C10.3103 3.26646 9.8159 2.73828 9.20596 2.73828C8.59602 2.73828 8.10156 3.26646 8.10156 3.918C8.10156 4.56954 8.59602 5.09772 9.20596 5.09772Z" fill="white"/>
<path d="M13.4013 5.09772C14.0112 5.09772 14.5057 4.56954 14.5057 3.918C14.5057 3.26646 14.0112 2.73828 13.4013 2.73828C12.7913 2.73828 12.2969 3.26646 12.2969 3.918C12.2969 4.56954 12.7913 5.09772 13.4013 5.09772Z" fill="white"/>
<path d="M136.041 3.11208H131.214C131.12 3.11122 131.029 3.07057 130.963 2.99899C130.897 2.9274 130.859 2.83068 130.859 2.72988C130.859 2.62907 130.897 2.53235 130.963 2.46077C131.029 2.38918 131.12 2.34853 131.214 2.34767H136.041C136.088 2.34724 136.135 2.35681 136.179 2.37582C136.223 2.39483 136.262 2.42292 136.296 2.45845C136.329 2.49399 136.356 2.53627 136.374 2.58285C136.392 2.62944 136.402 2.67941 136.402 2.72988C136.402 2.78035 136.392 2.83032 136.374 2.8769C136.356 2.92349 136.329 2.96577 136.296 3.0013C136.262 3.03684 136.223 3.06492 136.179 3.08394C136.135 3.10295 136.088 3.11252 136.041 3.11208Z" fill="white"/>
<path d="M136.044 4.54177H131.217C131.122 4.54177 131.031 4.5015 130.964 4.42983C130.897 4.35815 130.859 4.26093 130.859 4.15956C130.859 4.0582 130.897 3.96098 130.964 3.8893C131.031 3.81763 131.122 3.77736 131.217 3.77736H136.044C136.091 3.77693 136.138 3.78649 136.182 3.80551C136.226 3.82452 136.265 3.8526 136.299 3.88814C136.332 3.92367 136.359 3.96595 136.377 4.01254C136.395 4.05913 136.405 4.10909 136.405 4.15956C136.405 4.21003 136.395 4.26 136.377 4.30659C136.359 4.35318 136.332 4.39546 136.299 4.43099C136.265 4.46653 136.226 4.49461 136.182 4.51362C136.138 4.53264 136.091 4.5422 136.044 4.54177Z" fill="white"/>
<path d="M136.041 5.97536H131.214C131.12 5.97454 131.03 5.93391 130.963 5.86232C130.897 5.79073 130.859 5.69398 130.859 5.59315C130.859 5.49231 130.897 5.39556 130.963 5.32398C131.03 5.25239 131.12 5.21176 131.214 5.21094H136.041C136.136 5.21176 136.226 5.25239 136.292 5.32398C136.359 5.39556 136.396 5.49231 136.396 5.59315C136.396 5.69398 136.359 5.79073 136.292 5.86232C136.226 5.93391 136.136 5.97454 136.041 5.97536Z" fill="white"/>
<path d="M174.17 132.325C173.948 132.067 173.781 131.76 173.682 131.425C173.583 131.091 173.554 130.737 173.597 130.39C173.639 130.042 173.753 129.708 173.929 129.413C174.106 129.117 174.341 128.866 174.618 128.678L172.777 120.383L176.673 121.903L177.823 129.547C178.088 130.065 178.167 130.669 178.043 131.244C177.919 131.82 177.602 132.327 177.152 132.669C176.701 133.012 176.149 133.166 175.6 133.102C175.05 133.039 174.541 132.762 174.17 132.325Z" fill="#9E616A"/>
<path d="M164.805 97.5649L166.368 101.859C166.368 101.859 165.698 106.153 166.815 107.107C167.931 108.061 167.485 108.061 167.485 108.777C167.523 109.29 167.662 109.789 167.893 110.241C168.124 110.694 168.441 111.089 168.824 111.401C169.718 112.117 173.738 126.669 173.738 126.669H177.757C177.628 125.56 177.628 124.438 177.757 123.329C177.981 121.659 177.087 117.365 176.641 116.649C176.194 115.934 176.641 114.979 176.641 113.548C176.641 112.117 175.748 111.401 175.748 109.016C175.748 106.63 173.068 88.0228 173.291 85.8758C173.514 83.7288 171.058 81.8203 171.058 81.8203H168.824L164.805 97.5649Z" fill="#E4E4E4"/>
<path d="M175.083 188.292H172.112L170.699 176.051L175.084 176.051L175.083 188.292Z" fill="#9E616A"/>
<path d="M175.841 191.367L166.262 191.366V191.237C166.262 190.181 166.655 189.167 167.354 188.421C168.053 187.674 169.001 187.254 169.99 187.254L171.74 185.836L175.005 187.254L175.841 187.254L175.841 191.367Z" fill="#2F2E41"/>
<path d="M147.907 188.199L145.117 187.108L147.726 175.094L151.844 176.703L147.907 188.199Z" fill="#9E616A"/>
<path d="M147.629 191.367L138.633 187.851L138.674 187.73C139.014 186.738 139.709 185.93 140.606 185.486C141.503 185.041 142.528 184.995 143.457 185.357L145.557 184.668L148.167 187.198L148.952 187.505L147.629 191.367Z" fill="#2F2E41"/>
<path d="M168.539 131.051C168.539 131.051 166.529 141.548 169.879 140.594C173.229 139.639 171.889 130.574 171.889 130.574L168.539 131.051Z" fill="#A0616A"/>
<path d="M153.798 122.344C153.798 122.344 151.119 126.161 151.119 128.308C151.119 130.455 150.225 149.539 150.225 149.539C150.225 149.539 143.445 177.958 144.785 179.389C146.125 180.821 150.814 182.252 151.484 181.536C152.154 180.821 158.042 151.447 158.042 151.447L163.625 135.464L168.761 158.366L169.208 182.698C169.208 182.698 174.791 184.129 175.907 183.175C177.024 182.221 177.247 159.081 175.907 150.97C174.568 142.859 176.131 124.252 176.131 124.252L153.798 122.344Z" fill="#2F2E41"/>
<path d="M162.754 71.411C166.455 71.411 169.454 68.2068 169.454 64.2543C169.454 60.3018 166.455 57.0977 162.754 57.0977C159.054 57.0977 156.055 60.3018 156.055 64.2543C156.055 68.2068 159.054 71.411 162.754 71.411Z" fill="#9E616A"/>
<path d="M154.249 81.7905C154.249 81.7905 156.178 78.7202 159.974 74.6648C161.984 73.9491 165.467 74.3662 166.674 74.6648C172.257 82.5371 172.608 82.014 174.062 86.4125C174.438 87.5531 174.627 88.649 174.459 89.5435C173.789 93.1219 175.911 122.106 176.134 123.06C176.358 124.015 177.921 125.207 176.358 125.207C174.794 125.207 151.122 124.253 151.569 123.538C152.015 122.822 154.249 81.7905 154.249 81.7905Z" fill="#E4E4E4"/>
<path opacity="0.1" d="M153.227 123.225L159.944 107.438L156.585 124.228L153.227 123.225Z" fill="black"/>
<path d="M160.731 70.8859C161.358 70.3873 161.935 69.821 162.454 69.1961C162.975 68.5656 163.301 67.7789 163.388 66.9432C163.426 66.5265 163.365 66.1063 163.21 65.7217C163.055 65.3371 162.812 65.0006 162.502 64.7436C161.864 64.262 160.891 64.2901 160.361 64.9036C160.617 64.02 160.851 62.9778 160.333 62.2369C159.861 61.5625 158.981 61.448 158.221 61.2256C156.755 60.7897 155.494 59.7861 154.684 58.4106L155.974 58.6959L155.83 57.713L156.9 58.1103L156.909 56.7413L158.013 57.4011C159.365 56.0776 161.146 55.3688 162.978 55.425C163.903 55.4414 164.808 55.707 165.611 56.197C166.415 56.694 167.025 57.4848 167.326 58.4236C167.895 57.7936 168.908 57.8423 169.584 58.3347C170.261 58.8271 170.659 59.6508 170.932 60.4755C171.473 62.0572 171.599 63.7666 171.296 65.4191C170.984 67.0754 170.149 68.5669 168.93 69.643C167.81 70.5559 166.477 71.1224 165.076 71.2805C163.681 71.435 162.272 71.3707 160.895 71.0896" fill="#2F2E41"/>
<path d="M151.133 132.298C151.355 132.039 151.522 131.732 151.621 131.398C151.72 131.063 151.749 130.71 151.706 130.362C151.664 130.015 151.55 129.681 151.374 129.385C151.197 129.09 150.962 128.839 150.685 128.65L152.526 120.355L148.631 121.876L147.48 129.52C147.215 130.038 147.137 130.642 147.26 131.217C147.384 131.792 147.701 132.299 148.152 132.642C148.602 132.984 149.154 133.138 149.704 133.075C150.253 133.011 150.762 132.735 151.133 132.298Z" fill="#9E616A"/>
<path d="M156.48 81.7891H154.247C154.247 81.7891 151.79 83.6975 152.013 85.8445C152.237 87.9915 149.557 106.599 149.557 108.984C149.557 111.37 148.664 112.086 148.664 113.517C148.664 114.948 149.11 115.902 148.664 116.618C148.217 117.334 147.324 121.628 147.547 123.298C147.677 124.407 147.677 125.528 147.547 126.637H151.567C151.567 126.637 155.587 112.086 156.48 111.37C156.863 111.057 157.18 110.662 157.411 110.21C157.642 109.758 157.781 109.259 157.82 108.746C157.82 108.03 157.373 108.03 158.49 107.076C159.606 106.122 158.936 101.828 158.936 101.828L160.5 97.5337L156.48 81.7891Z" fill="#E4E4E4"/>
<path d="M219.657 192.031H97.1529C97.1118 192.031 97.0711 192.022 97.0332 192.005C96.9952 191.989 96.9607 191.964 96.9316 191.933C96.9025 191.902 96.8794 191.865 96.8637 191.825C96.8479 191.784 96.8398 191.741 96.8398 191.697C96.8398 191.653 96.8479 191.61 96.8637 191.569C96.8794 191.528 96.9025 191.492 96.9316 191.461C96.9607 191.43 96.9952 191.405 97.0332 191.388C97.0711 191.372 97.1118 191.363 97.1529 191.363H219.657C219.698 191.363 219.738 191.372 219.776 191.388C219.814 191.405 219.849 191.43 219.878 191.461C219.907 191.492 219.93 191.528 219.946 191.569C219.962 191.61 219.97 191.653 219.97 191.697C219.97 191.741 219.962 191.784 219.946 191.825C219.93 191.865 219.907 191.902 219.878 191.933C219.849 191.964 219.814 191.989 219.776 192.005C219.738 192.022 219.698 192.031 219.657 192.031Z" fill="#CACACA"/>
</g>
<defs>
<clipPath id="clip0_88_672">
<rect width="219.466" height="191.148" fill="white" transform="translate(0.5 0.882812)"/>
</clipPath>
</defs>
</svg>
