<svg width="154" height="185" viewBox="0 0 154 185" fill="none" xmlns="http://www.w3.org/2000/svg">
<g clip-path="url(#clip0_88_640)">
<path d="M1.63541 88.4367C2.19868 89.3774 2.96136 90.1831 3.86972 90.7972C4.77809 91.4113 5.81005 91.8187 6.8929 91.9908C7.97576 92.1629 9.08317 92.0954 10.1371 91.7932C11.1911 91.491 12.166 90.9614 12.9932 90.2417L36.1128 103.502L35.2512 89.6786L13.4285 79.2059C12.1272 77.8965 10.3909 77.1098 8.54848 76.9951C6.70606 76.8803 4.88553 77.4454 3.43189 78.5832C1.97824 79.721 0.992469 81.3525 0.661366 83.1686C0.330264 84.9847 0.676836 86.8591 1.63541 88.4367Z" fill="#FFB8B8"/>
<path d="M68.5668 141.553C61.7087 151.151 61.9541 167.21 63.8675 184.786H96.2926L97.7024 181.497L99.5821 184.786H130.128C130.128 184.786 127.778 140.143 123.549 138.733C119.319 137.323 68.5668 141.553 68.5668 141.553Z" fill="#2F2E41"/>
<path d="M96.2913 41.2661C105.375 41.2661 112.739 33.9023 112.739 24.8186C112.739 15.7349 105.375 8.37109 96.2913 8.37109C87.2076 8.37109 79.8438 15.7349 79.8438 24.8186C79.8438 33.9023 87.2076 41.2661 96.2913 41.2661Z" fill="#FFB8B8"/>
<path d="M108.178 45.5352L111.394 51.6999L133.641 61.6172L127.793 118.209L125.332 124.069L126.661 129.158L123.455 132.914C126.674 135.826 127.082 138.874 125.332 142.027L115.087 144.374C115.087 144.374 58.1242 149.439 62.9248 140.614C68.1702 130.972 69.5059 102.496 57.9263 87.2791C48.0956 74.3602 55.643 57.5966 55.643 57.5966L78.9619 50.6278L87.539 45.5352L108.178 45.5352Z" fill="#3F3D56"/>
<path d="M103.595 0.726113C103.672 0.562581 103.797 0.425884 103.952 0.333577C104.108 0.241269 104.287 0.197565 104.468 0.208079C96.9379 -0.242342 89.0065 0.635298 82.7069 4.78483C81.1807 5.79012 79.7418 6.98921 78.081 7.71847C78.0026 7.75369 77.9347 7.80859 77.8838 7.87783C77.8329 7.94706 77.8008 8.02828 77.7905 8.1136C77.7803 8.19892 77.7923 8.28544 77.8254 8.36476C77.8584 8.44407 77.9115 8.51349 77.9793 8.56626L78.1617 8.7093C78.2336 8.76574 78.2888 8.84083 78.321 8.92641C78.3533 9.01199 78.3615 9.10477 78.3447 9.19468C78.3279 9.28458 78.2868 9.36816 78.2258 9.43633C78.1648 9.5045 78.0864 9.55464 77.9989 9.58131C77.9077 9.60911 77.8263 9.66239 77.7644 9.73488C77.7025 9.80737 77.6626 9.89605 77.6494 9.99046C77.6361 10.0849 77.6502 10.1811 77.6899 10.2678C77.7295 10.3545 77.7931 10.4281 77.8732 10.4798L79.2711 11.3833C79.3415 11.428 79.3995 11.4896 79.4399 11.5626C79.4803 11.6356 79.5017 11.7175 79.5021 11.8009C79.5026 11.8843 79.4821 11.9665 79.4425 12.0399C79.4029 12.1133 79.3456 12.1756 79.2757 12.2211C79.1572 12.2942 79.0329 12.3572 78.9039 12.4096C78.8237 12.4397 78.7526 12.49 78.6974 12.5556C78.6422 12.6212 78.6049 12.7 78.589 12.7842C78.5731 12.8684 78.5792 12.9554 78.6067 13.0366C78.6341 13.1178 78.682 13.1905 78.7458 13.2478C79.3511 13.7867 79.8154 14.4655 80.0983 15.225C80.5642 16.4365 80.6479 17.7558 80.7266 19.0514C81.2081 17.182 83.2482 16.0817 85.1754 15.9698C87.1025 15.858 88.9819 16.4939 90.8574 16.951C94.9423 17.9436 99.1848 18.1068 103.334 17.4309C101.925 20.2583 103.113 23.6308 104.309 26.5547L108.181 24.8954C113.497 21.8943 109.794 34.5896 107.806 36.3324C111.865 37.7394 122.487 22.123 119.07 16.1993C117.292 13.1179 118.554 9.14358 115.059 6.22109C113.346 4.41799 109.927 5.2194 108.181 3.72081C107.493 3.13099 108.541 1.55301 107.596 1.20911C107.283 1.09489 103.647 0.610993 103.595 0.726113Z" fill="#2F2E41"/>
<path d="M75.7354 52.2188C72.7174 65.6177 64.9766 96.9026 57.1232 103.445C56.6251 103.916 56.028 104.268 55.3756 104.477C27.7709 111.202 18.9258 94.048 18.9258 94.048C18.9258 94.048 26.3235 90.443 26.5111 83.3964L41.4298 88.0253L54.4348 58.7588L56.3486 56.9737L56.3593 56.963L75.7354 52.2188Z" fill="#3F3D56"/>
<path d="M134.594 175.95C135.385 175.19 135.999 174.266 136.394 173.243C136.789 172.22 136.954 171.123 136.879 170.03C136.804 168.936 136.49 167.872 135.959 166.912C135.428 165.953 134.694 165.122 133.807 164.477L141.545 138.973L128.267 142.912L122.954 166.527C121.97 168.089 121.593 169.957 121.894 171.778C122.195 173.6 123.154 175.247 124.589 176.409C126.024 177.57 127.835 178.165 129.679 178.081C131.523 177.996 133.272 177.238 134.594 175.95Z" fill="#FFB8B8"/>
<path d="M127.509 60.1914L133.643 61.6182C133.643 61.6182 158.995 110.944 152.886 120.342C146.777 129.741 139.292 160.857 139.292 160.857C139.292 160.857 128.223 158.657 123.994 153.018L131.739 116.113L123.75 85.0977L127.509 60.1914Z" fill="#3F3D56"/>
<path d="M11.1484 133.435L11.3687 53.9932C11.375 52.3853 12.0188 50.8456 13.1589 49.7118C14.299 48.5779 15.8423 47.9427 17.4502 47.9453L77.4466 48.1117C79.0545 48.1179 80.5942 48.7618 81.728 49.9019C82.8618 51.042 83.4971 52.5853 83.4944 54.1932L83.2742 133.635C83.2679 135.243 82.6241 136.783 81.484 137.917C80.3439 139.05 78.8006 139.686 77.1927 139.683L17.1963 139.517C15.5884 139.51 14.0487 138.867 12.9149 137.727C11.7811 136.586 11.1458 135.043 11.1484 133.435Z" fill="#E6E6E6"/>
<path d="M15.8125 109.455L15.9541 58.3828C15.96 56.8769 16.5629 55.4349 17.6307 54.373C18.6984 53.3112 20.1438 52.7163 21.6497 52.7188L73.2115 52.8617C74.7173 52.8675 76.1594 53.4705 77.2213 54.5382C78.2832 55.606 78.8782 57.0513 78.8758 58.5572L78.6798 129.25C78.6739 130.756 78.0709 132.198 77.0031 133.26C75.9353 134.321 74.4899 134.916 72.984 134.914L41.0425 134.825C34.3349 134.799 27.9115 132.113 23.1816 127.357C18.4517 122.601 15.8015 116.163 15.8125 109.455Z" fill="white"/>
<path d="M67.3048 75.1527H27.0998C26.46 75.1527 25.8464 74.8986 25.394 74.4462C24.9417 73.9938 24.6875 73.3802 24.6875 72.7404C24.6875 72.1006 24.9417 71.4871 25.394 71.0347C25.8464 70.5823 26.46 70.3281 27.0998 70.3281H67.3048C67.9446 70.3281 68.5581 70.5823 69.0105 71.0347C69.4629 71.4871 69.7171 72.1006 69.7171 72.7404C69.7171 73.3802 69.4629 73.9938 69.0105 74.4462C68.5581 74.8986 67.9446 75.1527 67.3048 75.1527Z" fill="#6C63FF"/>
<path d="M35.9449 64.0277H27.0998C26.46 64.0277 25.8464 63.7736 25.394 63.3212C24.9417 62.8688 24.6875 62.2552 24.6875 61.6154C24.6875 60.9756 24.9417 60.3621 25.394 59.9097C25.8464 59.4573 26.46 59.2031 27.0998 59.2031H35.9449C36.5847 59.2031 37.1982 59.4573 37.6506 59.9097C38.103 60.3621 38.3572 60.9756 38.3572 61.6154C38.3572 62.2552 38.103 62.8688 37.6506 63.3212C37.1982 63.7736 36.5847 64.0277 35.9449 64.0277Z" fill="#6C63FF"/>
<path d="M67.3048 86.2738H27.0998C26.46 86.2738 25.8464 86.0197 25.394 85.5673C24.9417 85.1149 24.6875 84.5013 24.6875 83.8615C24.6875 83.2217 24.9417 82.6082 25.394 82.1558C25.8464 81.7034 26.46 81.4492 27.0998 81.4492H67.3048C67.9446 81.4492 68.5581 81.7034 69.0105 82.1558C69.4629 82.6082 69.7171 83.2217 69.7171 83.8615C69.7171 84.5013 69.4629 85.1149 69.0105 85.5673C68.5581 86.0197 67.9446 86.2738 67.3048 86.2738Z" fill="#6C63FF"/>
<path d="M67.3048 97.3988H27.0998C26.46 97.3988 25.8464 97.1447 25.394 96.6923C24.9417 96.2399 24.6875 95.6263 24.6875 94.9865C24.6875 94.3467 24.9417 93.7332 25.394 93.2808C25.8464 92.8284 26.46 92.5742 27.0998 92.5742H67.3048C67.9446 92.5742 68.5581 92.8284 69.0105 93.2808C69.4629 93.7332 69.7171 94.3467 69.7171 94.9865C69.7171 95.6263 69.4629 96.2399 69.0105 96.6923C68.5581 97.1447 67.9446 97.3988 67.3048 97.3988Z" fill="#6C63FF"/>
<path d="M64.0517 126.709C69.3528 126.709 73.6502 122.411 73.6502 117.11C73.6502 111.809 69.3528 107.512 64.0517 107.512C58.7505 107.512 54.4531 111.809 54.4531 117.11C54.4531 122.411 58.7505 126.709 64.0517 126.709Z" fill="#6C63FF"/>
<path d="M62.7417 122.104C62.5759 122.104 62.4125 122.065 62.2642 121.991C62.116 121.917 61.987 121.809 61.8876 121.676L59.269 118.185C59.1847 118.073 59.1233 117.945 59.0883 117.809C59.0534 117.673 59.0456 117.532 59.0653 117.393C59.0851 117.254 59.132 117.12 59.2035 116.999C59.275 116.879 59.3695 116.773 59.4818 116.689C59.594 116.605 59.7218 116.544 59.8577 116.509C59.9937 116.474 60.1352 116.466 60.2741 116.486C60.4129 116.506 60.5465 116.553 60.6672 116.625C60.7879 116.697 60.8933 116.791 60.9773 116.904L62.6905 119.188L67.0906 112.588C67.1682 112.47 67.2681 112.37 67.3847 112.291C67.5012 112.213 67.6321 112.158 67.7699 112.13C67.9076 112.103 68.0494 112.102 68.1873 112.13C68.3251 112.157 68.4563 112.211 68.5732 112.289C68.6901 112.367 68.7904 112.467 68.8685 112.584C68.9466 112.7 69.0009 112.832 69.0282 112.969C69.0555 113.107 69.0554 113.249 69.0278 113.387C69.0002 113.525 68.9457 113.655 68.8674 113.772L63.6302 121.628C63.5354 121.77 63.408 121.887 63.2586 121.97C63.1092 122.053 62.9421 122.098 62.7714 122.103C62.7615 122.103 62.7516 122.104 62.7417 122.104Z" fill="white"/>
<path d="M43.5839 29.4491C46.1004 29.4491 48.1405 27.409 48.1405 24.8925C48.1405 22.376 46.1004 20.3359 43.5839 20.3359C41.0674 20.3359 39.0273 22.376 39.0273 24.8925C39.0273 27.409 41.0674 29.4491 43.5839 29.4491Z" fill="#F2F2F2"/>
<path d="M26.9667 160.519C29.4832 160.519 31.5233 158.479 31.5233 155.963C31.5233 153.446 29.4832 151.406 26.9667 151.406C24.4502 151.406 22.4102 153.446 22.4102 155.963C22.4102 158.479 24.4502 160.519 26.9667 160.519Z" fill="#F2F2F2"/>
<path d="M131.768 47.1405C134.284 47.1405 136.324 45.1004 136.324 42.5839C136.324 40.0674 134.284 38.0273 131.768 38.0273C129.251 38.0273 127.211 40.0674 127.211 42.5839C127.211 45.1004 129.251 47.1405 131.768 47.1405Z" fill="#F2F2F2"/>
</g>
<defs>
<clipPath id="clip0_88_640">
<rect width="153.299" height="184.685" fill="white" transform="translate(0.539062 0.101562)"/>
</clipPath>
</defs>
</svg>
