<svg width="176" height="163" viewBox="0 0 176 163" fill="none" xmlns="http://www.w3.org/2000/svg">
<g clip-path="url(#clip0_88_535)">
<path d="M169.125 133.465H6.32226C2.84053 133.465 0.0078125 130.376 0.0078125 126.58V105.215H175.439V126.58C175.439 130.376 172.607 133.465 169.125 133.465Z" fill="#E6E6E6"/>
<path d="M108.794 129.895H67.2773V162.229H108.794V129.895Z" fill="#E6E6E6"/>
<path d="M111.292 158.141H64.7812V162.225H111.292V158.141Z" fill="#E6E6E6"/>
<path d="M175.283 114.239H0.0078125V5.62327C0.0078125 3.01805 1.95178 0.898438 4.34111 0.898438H170.95C173.339 0.898438 175.283 3.01805 175.283 5.62327V114.239Z" fill="#3F3D56"/>
<path d="M171.07 5.83203H4.06641V108.281H171.07V5.83203Z" fill="white"/>
<path d="M92.8336 71.7439L88.9883 69.7578C90.5654 72.1578 91.9244 75.9059 92.652 78.8884C93.8839 76.1102 95.8697 72.7108 97.8354 70.6802L93.7713 71.8202C96.2756 58.4381 105.695 48.831 116.481 48.831L116.633 48.3477C105.367 48.3477 95.3905 57.8215 92.8336 71.7439Z" fill="#3F3D56"/>
<path d="M110.532 92.1342H86.2361C85.2056 92.1342 84.3672 91.22 84.3672 90.0964C84.3672 88.9728 85.2056 88.0586 86.2361 88.0586H110.532C111.563 88.0586 112.401 88.9728 112.401 90.0964C112.401 91.22 111.563 92.1342 110.532 92.1342Z" fill="#6C63FF"/>
<path d="M142.864 92.1342H118.568C117.538 92.1342 116.699 91.22 116.699 90.0964C116.699 88.9728 117.538 88.0586 118.568 88.0586H142.864C143.895 88.0586 144.733 88.9728 144.733 90.0964C144.733 91.22 143.895 92.1342 142.864 92.1342Z" fill="#E6E6E6"/>
<path d="M128.478 36.6984H104.861C104.266 36.6984 103.781 36.1701 103.781 35.5209C103.781 34.8717 104.266 34.3438 104.861 34.3438H128.478C129.073 34.3438 129.558 34.8717 129.558 35.5209C129.558 36.1701 129.073 36.6984 128.478 36.6984Z" fill="#3F3D56"/>
<path d="M141.152 49.2609H92.1892C91.5938 49.2609 91.1094 48.7326 91.1094 48.0834C91.1094 47.4342 91.5938 46.9062 92.1892 46.9062H141.152C141.748 46.9062 142.232 47.4342 142.232 48.0834C142.232 48.7326 141.748 49.2609 141.152 49.2609Z" fill="#3F3D56"/>
<path d="M10.625 162.53C10.625 162.741 10.7808 162.911 10.9748 162.911H164.475C164.669 162.911 164.825 162.741 164.825 162.53C164.825 162.318 164.669 162.148 164.475 162.148H10.9748C10.7808 162.148 10.625 162.318 10.625 162.53Z" fill="#3F3D56"/>
<path d="M48.3149 72.1333C48.2733 72.1333 48.2318 72.1316 48.1899 72.1287C45.7303 71.9565 37.3142 70.6581 32.2899 61.1859C31.8758 60.406 31.9574 59.4145 32.4927 58.7189L41.7976 46.6309C42.1781 46.1365 42.7659 45.8517 43.3612 45.8595C43.7727 45.8702 44.7469 45.9835 44.9361 46.8024C46.0538 51.6401 50.7738 57.3283 56.4502 58.0823C57.0256 58.1586 57.4875 58.7182 57.6858 59.5793C57.8404 60.2497 57.6975 60.9408 57.2935 61.4752L49.8395 71.3446C49.4608 71.8458 48.9052 72.1333 48.3149 72.1333ZM43.3255 46.3458C42.8708 46.3458 42.4285 46.5679 42.1394 46.9435L32.8347 59.0316C32.4194 59.571 32.3558 60.3388 32.6761 60.9422C37.5896 70.2055 45.8148 71.4748 48.2187 71.6432C48.7095 71.6791 49.1809 71.451 49.4951 71.0353L56.9491 61.166C57.2621 60.7519 57.3728 60.2169 57.2531 59.6979C57.1361 59.1898 56.8495 58.6253 56.3962 58.565C50.5322 57.7863 45.6572 51.9147 44.5034 46.9212C44.4099 46.5168 43.8473 46.3589 43.352 46.346C43.3431 46.3458 43.3343 46.3458 43.3255 46.3458Z" fill="#3F3D56"/>
<path d="M37.9286 61.5835L44.637 54.1255C45.0956 53.6157 44.3772 52.8311 43.918 53.3416L37.2096 60.7996C36.7511 61.3094 37.4695 62.094 37.9286 61.5835Z" fill="#E6E6E6"/>
<path d="M41.9793 63.6873C43.8307 61.8779 45.4396 59.7829 46.757 57.4841C47.1048 56.8772 46.2254 56.3201 45.879 56.9245C44.6054 59.147 43.05 61.1543 41.2603 62.9033C40.772 63.3806 41.4931 64.1625 41.9793 63.6873Z" fill="#E6E6E6"/>
<path d="M45.6327 66.1977C47.3184 64.1618 48.7533 61.8895 49.8829 59.4384C50.176 58.8025 49.2991 58.2405 49.0049 58.8788C47.9135 61.247 46.5427 63.4462 44.9137 65.4138C44.4762 65.9422 45.1931 66.7287 45.6327 66.1977Z" fill="#E6E6E6"/>
<path d="M42.7556 52.7742C46.4909 52.7742 49.519 49.5421 49.519 45.5551C49.519 41.568 46.4909 38.3359 42.7556 38.3359C39.0203 38.3359 35.9922 41.568 35.9922 45.5551C35.9922 49.5421 39.0203 52.7742 42.7556 52.7742Z" fill="#6C63FF"/>
<path d="M46.2741 48.9837C45.2339 46.1952 44.1937 43.4067 43.1535 40.6182C43.0099 40.2331 42.5598 40.2194 42.4196 40.6182C41.3919 43.5417 40.7202 46.5923 40.3974 49.7026C40.3424 50.2324 41.1039 50.2282 41.1585 49.7026C41.2848 48.4855 41.4724 47.2775 41.7132 46.0823C42.5703 46.1313 43.4345 46.0265 44.2616 45.7768C44.6878 46.9193 45.114 48.0618 45.5402 49.2043C45.7223 49.6925 46.4588 49.479 46.2741 48.9837ZM41.8858 45.2619C42.1421 44.1178 42.4495 42.9872 42.8061 41.8748L43.9726 45.0019C43.2893 45.1974 42.5906 45.2844 41.8858 45.2619Z" fill="white"/>
</g>
<defs>
<clipPath id="clip0_88_535">
<rect width="175.432" height="162.013" fill="white" transform="translate(0.0078125 0.898438)"/>
</clipPath>
</defs>
</svg>
