<svg width="218" height="218" viewBox="0 0 218 218" fill="none" xmlns="http://www.w3.org/2000/svg">
<g clip-path="url(#clip0_510_896)">
<path d="M102.623 1.83196L95.9943 5.72487L14.3316 53.6863L7.70323 57.5793C4.48694 59.4733 2.09995 62.6632 1.06595 66.4493C0.0319452 70.2354 0.435363 74.3083 2.1877 77.7746L63 197.746C64.7596 201.208 67.7231 203.777 71.2404 204.89C74.7577 206.003 78.5415 205.569 81.7618 203.683L81.7789 203.673L176.664 147.946L176.681 147.935C179.897 146.041 182.284 142.851 183.318 139.065C184.352 135.279 183.949 131.206 182.197 127.74L121.384 7.76897C119.625 4.30693 116.661 1.73755 113.144 0.62453C109.627 -0.488491 105.843 -0.0542581 102.623 1.83196Z" fill="#F2F2F2"/>
<path d="M104.531 5.59142L96.6799 10.2023L17.4619 56.728L9.6112 61.3388C7.3208 62.6875 5.62097 64.9592 4.88462 67.6553C4.14828 70.3515 4.43556 73.2519 5.68345 75.7203L66.4957 195.692C67.7488 198.157 69.8592 199.987 72.3639 200.779C74.8687 201.572 77.5632 201.263 79.8564 199.919L79.8735 199.909L174.759 144.182L174.776 144.172C177.066 142.823 178.766 140.552 179.502 137.855C180.239 135.159 179.951 132.259 178.704 129.791L117.891 9.81935C116.638 7.35396 114.528 5.52425 112.023 4.73163C109.518 3.93901 106.824 4.24822 104.531 5.59142Z" fill="white"/>
<path d="M105.837 42.8303L70.4486 63.6144C69.9125 63.9293 69.2822 64.002 68.6962 63.8166C68.1103 63.6312 67.6168 63.2028 67.3243 62.6258C67.0318 62.0487 66.9642 61.3702 67.1365 60.7395C67.3087 60.1088 67.7067 59.5776 68.2428 59.2627L103.631 38.4786C104.167 38.1637 104.798 38.091 105.384 38.2764C105.97 38.4618 106.463 38.8902 106.756 39.4673C107.048 40.0443 107.116 40.7229 106.943 41.3536C106.771 41.9843 106.373 42.5155 105.837 42.8303Z" fill="#F2F2F2"/>
<path d="M117.902 45.2756L74.1752 70.9569C73.6391 71.2718 73.0087 71.3445 72.4228 71.1591C71.8369 70.9737 71.3434 70.5453 71.0508 69.9683C70.7583 69.3912 70.6908 68.7127 70.863 68.082C71.0353 67.4513 71.4332 66.9201 71.9693 66.6052L115.696 40.9239C115.962 40.768 116.253 40.6699 116.554 40.6352C116.854 40.6005 117.158 40.6299 117.449 40.7217C117.739 40.8135 118.009 40.9659 118.245 41.1703C118.48 41.3746 118.676 41.6268 118.821 41.9126C118.965 42.1983 119.056 42.512 119.089 42.8356C119.121 43.1593 119.094 43.4866 119.008 43.7989C118.923 44.1112 118.781 44.4023 118.592 44.6557C118.402 44.9091 118.167 45.1197 117.902 45.2756Z" fill="#F2F2F2"/>
<path d="M55.9002 54.9653L23.274 74.127C23.0172 74.278 22.8265 74.5325 22.744 74.8347C22.6615 75.1369 22.6938 75.4619 22.8339 75.7385L36.727 103.147C36.8672 103.423 37.1036 103.628 37.3844 103.717C37.6651 103.806 37.9671 103.771 38.224 103.621L70.8502 84.4588C71.107 84.3079 71.2976 84.0534 71.3801 83.7512C71.4627 83.449 71.4303 83.1239 71.2902 82.8474L57.3972 55.4391C57.257 55.1626 57.0205 54.9574 56.7398 54.8686C56.4591 54.7797 56.1571 54.8145 55.9002 54.9653Z" fill="#F2F2F2"/>
<path d="M123.398 77.6116L75.3978 105.803C75.1324 105.959 74.841 106.057 74.5403 106.091C74.2397 106.126 73.9356 106.097 73.6455 106.005C73.3553 105.913 73.0849 105.761 72.8495 105.556C72.6141 105.352 72.4183 105.1 72.2735 104.814C72.1287 104.528 72.0375 104.215 72.0053 103.891C71.9731 103.567 72.0004 103.24 72.0857 102.928C72.171 102.615 72.3126 102.324 72.5024 102.071C72.6922 101.817 72.9265 101.607 73.192 101.451L121.192 73.2599C121.728 72.945 122.359 72.8723 122.944 73.0577C123.53 73.2431 124.024 73.6714 124.316 74.2485C124.609 74.8256 124.677 75.5041 124.504 76.1348C124.332 76.7655 123.934 77.2967 123.398 77.6116Z" fill="#F2F2F2"/>
<path d="M135.459 80.0569L79.1205 113.145C78.5844 113.46 77.954 113.533 77.3681 113.347C76.7822 113.162 76.2887 112.734 75.9962 112.156C75.7037 111.579 75.6361 110.901 75.8083 110.27C75.9806 109.639 76.3785 109.108 76.9146 108.793L133.253 75.7052C133.789 75.3903 134.42 75.3176 135.005 75.503C135.591 75.6884 136.085 76.1167 136.377 76.6938C136.67 77.2709 136.738 77.9494 136.565 78.5801C136.393 79.2108 135.995 79.742 135.459 80.0569Z" fill="#F2F2F2"/>
<path d="M57.117 128.891C62.5125 128.891 66.8864 124.183 66.8864 118.375C66.8864 112.567 62.5125 107.859 57.117 107.859C51.7215 107.859 47.3477 112.567 47.3477 118.375C47.3477 124.183 51.7215 128.891 57.117 128.891Z" fill="#F2F2F2"/>
<path d="M203.285 51.2656H95.1561C91.4899 51.2701 87.9751 52.8397 85.3828 55.6301C82.7904 58.4206 81.3322 62.2039 81.3281 66.1502V202.817C81.3322 206.764 82.7904 210.547 85.3828 213.338C87.9751 216.128 91.49 217.698 95.1561 217.702H203.285C206.951 217.698 210.466 216.128 213.058 213.338C215.651 210.547 217.109 206.764 217.113 202.817V66.1502C217.109 62.2039 215.651 58.4206 213.058 55.6301C210.466 52.8397 206.951 51.2701 203.285 51.2656Z" fill="#E6E6E6"/>
<path d="M203.289 55.5508H95.1597C92.549 55.5539 90.046 56.6717 88.1999 58.6588C86.3538 60.6459 85.3154 63.3402 85.3125 66.1504V202.818C85.3154 205.628 86.3538 208.322 88.1999 210.309C90.046 212.296 92.549 213.414 95.1597 213.417H203.289C205.9 213.414 208.403 212.296 210.249 210.309C212.095 208.322 213.133 205.628 213.136 202.818V66.1504C213.133 63.3402 212.095 60.646 210.249 58.6589C208.403 56.6717 205.9 55.554 203.289 55.5508Z" fill="white"/>
<path d="M187.866 88.9144H147.553C146.942 88.9144 146.356 88.6532 145.924 88.1884C145.493 87.7236 145.25 87.0931 145.25 86.4357C145.25 85.7783 145.493 85.1479 145.924 84.683C146.356 84.2182 146.942 83.957 147.553 83.957H187.866C188.169 83.9567 188.469 84.0205 188.748 84.1449C189.028 84.2693 189.282 84.4518 189.496 84.682C189.71 84.9122 189.88 85.1856 189.996 85.4865C190.112 85.7874 190.171 86.11 190.171 86.4357C190.171 86.7614 190.112 87.084 189.996 87.3849C189.88 87.6858 189.71 87.9592 189.496 88.1894C189.282 88.4196 189.028 88.6021 188.748 88.7265C188.469 88.8509 188.169 88.9148 187.866 88.9144Z" fill="#6C63FF"/>
<path d="M197.365 97.2777H147.553C146.942 97.2777 146.356 97.0165 145.924 96.5517C145.493 96.0868 145.25 95.4564 145.25 94.799C145.25 94.1416 145.493 93.5111 145.924 93.0463C146.356 92.5815 146.942 92.3203 147.553 92.3203H197.365C197.976 92.3203 198.561 92.5815 198.993 93.0463C199.425 93.5111 199.668 94.1416 199.668 94.799C199.668 95.4564 199.425 96.0868 198.993 96.5517C198.561 97.0165 197.976 97.2777 197.365 97.2777Z" fill="#6C63FF"/>
<path d="M138.629 73.8203H101.463C101.17 73.8204 100.889 73.9455 100.683 74.1683C100.476 74.391 100.359 74.693 100.359 75.008V106.231C100.359 106.546 100.476 106.848 100.683 107.07C100.889 107.293 101.17 107.418 101.463 107.418H138.629C138.922 107.418 139.203 107.293 139.409 107.07C139.616 106.848 139.733 106.546 139.733 106.231V75.008C139.733 74.693 139.616 74.391 139.409 74.1683C139.203 73.9455 138.922 73.8204 138.629 73.8203Z" fill="#E6E6E6"/>
<path d="M111.656 92.9911C111.671 95.6269 110.768 98.1733 109.126 100.128C107.501 102.048 105.081 103.321 102.64 102.794C100.392 102.309 98.5648 100.194 98.7927 97.6357C98.8305 97.0815 98.9801 96.5428 99.2312 96.0572C99.4822 95.5717 99.8286 95.1509 100.246 94.8242C100.664 94.4975 101.143 94.2728 101.649 94.1657C102.156 94.0586 102.678 94.0717 103.179 94.2041C105.315 94.8006 106.166 98.1138 104.386 99.6689C103.959 100.042 103.346 99.3894 103.777 99.0128C104.953 97.9848 104.59 95.7358 103.17 95.1717C101.517 94.5151 99.765 95.9274 99.6461 97.7467C99.5051 99.9038 101.04 101.528 102.923 101.911C104.959 102.324 106.979 101.202 108.359 99.6538C109.94 97.8554 110.813 95.4674 110.794 92.9911C110.797 92.8708 110.845 92.7569 110.925 92.6733C111.005 92.5897 111.113 92.543 111.225 92.543C111.336 92.543 111.444 92.5897 111.524 92.6733C111.605 92.7569 111.652 92.8708 111.656 92.9911Z" fill="#2F2E41"/>
<path d="M120.077 98.8909C128.57 98.8909 135.455 91.4799 135.455 82.338C135.455 73.1961 128.57 65.7852 120.077 65.7852C111.584 65.7852 104.699 73.1961 104.699 82.338C104.699 91.4799 111.584 98.8909 120.077 98.8909Z" fill="#6C63FF"/>
<path d="M119.289 89.4014L119.273 88.7828C120.343 88.7508 121.285 88.6786 121.993 88.1217C122.194 87.9548 122.359 87.7433 122.477 87.5016C122.595 87.26 122.664 86.9938 122.678 86.7211C122.69 86.5545 122.667 86.3871 122.609 86.2318C122.552 86.0765 122.462 85.9376 122.346 85.8259C121.876 85.3985 121.12 85.5368 120.568 85.809L120.093 86.0436L121.005 78.8711L121.574 78.9551L120.798 85.0563C121.548 84.8192 122.242 84.9213 122.717 85.3535C122.9 85.525 123.043 85.7397 123.136 85.9807C123.228 86.2218 123.268 86.4826 123.252 86.7429C123.235 87.1092 123.144 87.4671 122.985 87.7916C122.826 88.1161 122.603 88.3993 122.332 88.6213C121.422 89.3371 120.24 89.3727 119.289 89.4014Z" fill="#2F2E41"/>
<path d="M127.486 79.4844H124.391V80.103H127.486V79.4844Z" fill="#2F2E41"/>
<path d="M117.716 79.4844H114.621V80.103H117.716V79.4844Z" fill="#2F2E41"/>
<path d="M111.559 107.42C112.711 106.633 113.957 106.016 115.262 105.586C115.138 105.109 115.14 104.604 115.268 104.129C115.441 103.528 115.79 103.004 116.263 102.635C116.736 102.265 117.307 102.07 117.891 102.078H121.638C122.224 102.07 122.796 102.266 123.269 102.636C123.743 103.006 124.093 103.531 124.267 104.132C124.396 104.607 124.398 105.11 124.273 105.586C125.578 106.016 126.824 106.633 127.977 107.42H111.559Z" fill="#2F2E41"/>
<path d="M137.69 76.1932C137.409 75.828 137.065 75.5263 136.675 75.3055C136.334 75.1136 135.954 75.0128 135.569 75.0117C135.04 75.0187 134.526 75.2048 134.101 75.5437C132.931 76.4344 132.121 78.3551 132.121 80.5789C132.121 83.3687 133.397 85.6822 135.055 86.0843C135.224 86.125 135.396 86.1458 135.569 86.1461C137.468 86.1461 139.017 83.6502 139.017 80.5789C139.017 78.7974 138.497 77.2108 137.69 76.1932Z" fill="#3F3D56"/>
<path d="M106.105 75.4107H106.102C105.718 75.154 105.275 75.0159 104.823 75.0117C104.438 75.0128 104.058 75.1136 103.717 75.3055C103.327 75.5263 102.983 75.828 102.703 76.1932L102.7 76.1963C101.895 77.2139 101.375 78.8005 101.375 80.5789C101.375 82.979 102.317 85.0265 103.639 85.809C104.001 86.0272 104.408 86.1432 104.823 86.1461C104.915 86.1461 105.007 86.1399 105.099 86.1276H105.102C106.872 85.8987 108.271 83.4986 108.271 80.5789C108.271 78.2407 107.372 76.2334 106.105 75.4107Z" fill="#3F3D56"/>
<path d="M103.858 85.2783C103.927 85.2783 103.994 85.2607 104.055 85.227C104.116 85.1934 104.168 85.1446 104.208 85.0848C104.248 85.025 104.274 84.9558 104.285 84.883C104.295 84.8101 104.289 84.7357 104.267 84.6659C103.443 82.0292 103.195 79.2235 103.543 76.4669C103.89 73.7103 104.823 71.0771 106.27 68.7718C107.716 66.4666 109.637 64.5515 111.883 63.1753C114.129 61.799 116.64 60.9988 119.22 60.8368C121.8 60.6748 124.38 61.1553 126.759 62.241C129.139 63.3267 131.253 64.9884 132.939 67.0969C134.625 69.2055 135.836 71.704 136.479 74.3984C137.122 77.0928 137.179 79.9105 136.646 82.6324C136.622 82.7528 136.644 82.8784 136.706 82.9815C136.769 83.0846 136.867 83.1568 136.979 83.1822C137.09 83.2076 137.207 83.1841 137.303 83.1169C137.399 83.0497 137.466 82.9443 137.489 82.8239C138.05 79.9621 137.991 76.9996 137.315 74.1666C136.639 71.3336 135.366 68.7065 133.593 66.4895C131.821 64.2725 129.598 62.5253 127.096 61.3837C124.594 60.2421 121.882 59.7369 119.169 59.9073C116.456 60.0777 113.817 60.9192 111.455 62.3664C109.094 63.8135 107.075 65.8272 105.554 68.2512C104.033 70.6751 103.052 73.4438 102.687 76.3422C102.323 79.2405 102.583 82.1904 103.45 84.9625C103.479 85.0545 103.534 85.1345 103.607 85.1911C103.68 85.2478 103.768 85.2783 103.858 85.2783Z" fill="#3F3D56"/>
<path d="M127.801 71.6146C128.41 72.5093 128.11 73.715 127.468 74.4864C126.633 75.4902 125.302 75.5535 124.146 75.3672C122.849 75.1581 121.473 74.504 120.16 74.9448C119.041 75.3205 118.242 76.4133 117.079 76.6878C116.048 76.9312 114.815 76.609 114.453 75.4258C114.28 74.8573 115.112 74.6136 115.285 75.1792C115.518 75.9446 116.528 75.9293 117.107 75.7174C118.034 75.3776 118.748 74.551 119.66 74.1562C120.734 73.6908 121.9 73.9009 122.994 74.1661C124.025 74.416 125.211 74.7865 126.239 74.3197C126.999 73.9742 127.603 72.8861 127.057 72.0829C126.728 71.6007 127.476 71.1373 127.801 71.6146Z" fill="#2F2E41"/>
<path d="M187.803 128.5H133.123C132.821 128.5 132.521 128.436 132.242 128.312C131.962 128.187 131.709 128.004 131.495 127.774C131.281 127.544 131.111 127.271 130.996 126.97C130.88 126.669 130.82 126.347 130.82 126.022C130.82 125.696 130.88 125.374 130.996 125.073C131.111 124.772 131.281 124.499 131.495 124.269C131.709 124.039 131.962 123.856 132.242 123.732C132.521 123.607 132.821 123.543 133.123 123.543H187.803C188.413 123.544 188.999 123.805 189.43 124.27C189.861 124.735 190.103 125.365 190.103 126.022C190.103 126.679 189.861 127.309 189.43 127.773C188.999 128.238 188.413 128.5 187.803 128.5Z" fill="#E6E6E6"/>
<path d="M197.305 136.864H133.126C132.823 136.864 132.523 136.8 132.244 136.676C131.964 136.551 131.71 136.369 131.496 136.139C131.282 135.908 131.112 135.635 130.996 135.334C130.88 135.033 130.82 134.711 130.82 134.385C130.82 134.059 130.88 133.737 130.996 133.436C131.112 133.135 131.282 132.861 131.496 132.631C131.71 132.401 131.964 132.219 132.244 132.094C132.523 131.97 132.823 131.906 133.126 131.906H197.305C197.607 131.906 197.907 131.97 198.187 132.094C198.466 132.219 198.72 132.401 198.934 132.631C199.149 132.861 199.318 133.135 199.434 133.436C199.55 133.737 199.61 134.059 199.61 134.385C199.61 134.711 199.55 135.033 199.434 135.334C199.318 135.635 199.149 135.908 198.934 136.139C198.72 136.369 198.466 136.551 198.187 136.676C197.907 136.8 197.607 136.864 197.305 136.864Z" fill="#E6E6E6"/>
<path d="M187.803 158.563H133.123C132.512 158.563 131.927 158.302 131.495 157.837C131.063 157.372 130.82 156.742 130.82 156.084C130.82 155.427 131.063 154.796 131.495 154.331C131.927 153.867 132.512 153.605 133.123 153.605H187.803C188.414 153.605 189 153.867 189.431 154.331C189.863 154.796 190.106 155.427 190.106 156.084C190.106 156.742 189.863 157.372 189.431 157.837C189 158.302 188.414 158.563 187.803 158.563Z" fill="#E6E6E6"/>
<path d="M197.302 166.926H133.123C132.512 166.926 131.927 166.665 131.495 166.2C131.063 165.735 130.82 165.105 130.82 164.447C130.82 163.79 131.063 163.16 131.495 162.695C131.927 162.23 132.512 161.969 133.123 161.969H197.302C197.913 161.969 198.498 162.23 198.93 162.695C199.362 163.16 199.605 163.79 199.605 164.447C199.605 165.105 199.362 165.735 198.93 166.2C198.498 166.665 197.913 166.926 197.302 166.926Z" fill="#E6E6E6"/>
<path d="M111.484 140.621C116.88 140.621 121.254 135.913 121.254 130.106C121.254 124.298 116.88 119.59 111.484 119.59C106.089 119.59 101.715 124.298 101.715 130.106C101.715 135.913 106.089 140.621 111.484 140.621Z" fill="#E6E6E6"/>
<path d="M111.484 170.934C116.88 170.934 121.254 166.226 121.254 160.418C121.254 154.61 116.88 149.902 111.484 149.902C106.089 149.902 101.715 154.61 101.715 160.418C101.715 166.226 106.089 170.934 111.484 170.934Z" fill="#E6E6E6"/>
<path d="M187.803 188.871H133.123C132.512 188.871 131.927 188.61 131.495 188.145C131.063 187.681 130.82 187.05 130.82 186.393C130.82 185.735 131.063 185.105 131.495 184.64C131.927 184.175 132.512 183.914 133.123 183.914H187.803C188.414 183.914 189 184.175 189.431 184.64C189.863 185.105 190.106 185.735 190.106 186.393C190.106 187.05 189.863 187.681 189.431 188.145C189 188.61 188.414 188.871 187.803 188.871Z" fill="#E6E6E6"/>
<path d="M197.302 197.239H133.123C132.512 197.239 131.927 196.977 131.495 196.513C131.063 196.048 130.82 195.417 130.82 194.76C130.82 194.103 131.063 193.472 131.495 193.007C131.927 192.542 132.512 192.281 133.123 192.281H197.302C197.913 192.281 198.498 192.542 198.93 193.007C199.362 193.472 199.605 194.103 199.605 194.76C199.605 195.417 199.362 196.048 198.93 196.513C198.498 196.977 197.913 197.239 197.302 197.239Z" fill="#E6E6E6"/>
<path d="M111.484 201.243C116.88 201.243 121.254 196.534 121.254 190.727C121.254 184.919 116.88 180.211 111.484 180.211C106.089 180.211 101.715 184.919 101.715 190.727C101.715 196.534 106.089 201.243 111.484 201.243Z" fill="#E6E6E6"/>
</g>
<defs>
<clipPath id="clip0_510_896">
<rect width="216.614" height="217.686" fill="white" transform="translate(0.5 0.015625)"/>
</clipPath>
</defs>
</svg>
