<svg width="218" height="168" viewBox="0 0 218 168" fill="none" xmlns="http://www.w3.org/2000/svg">
<g clip-path="url(#clip0_510_929)">
<path d="M201.141 152.733C194.044 158.227 185.397 163.791 176.896 166.415C174.445 167.194 171.917 167.691 169.357 167.898C166.964 168.093 164.555 167.903 162.221 167.335C156.085 165.784 150.395 163.067 144.888 159.894C143.089 158.856 141.311 157.77 139.543 156.66C136.658 154.847 133.801 152.971 130.936 151.14C130.507 150.863 130.08 150.591 129.651 150.321H129.649C128.957 149.88 128.264 149.445 127.569 149.016C127.447 148.939 127.325 148.865 127.2 148.789C125.887 147.98 124.552 147.19 123.194 146.418C123.027 146.326 122.861 146.231 122.695 146.138C120.067 144.657 117.367 143.314 114.604 142.114C112.79 141.337 110.952 140.637 109.096 140.04H109.093C108.383 139.813 107.671 139.599 106.956 139.403C104.812 138.805 102.628 138.371 100.42 138.103C97.3786 137.729 94.3022 137.754 91.2667 138.177C91.0613 138.206 90.8586 138.235 90.6532 138.27C82.4381 139.607 74.9405 144.114 66.689 145.177C66.4212 145.211 66.1561 145.243 65.8883 145.266C65.7739 145.277 65.6595 145.29 65.5452 145.298C63.1473 145.507 60.7341 145.446 58.3491 145.118C51.6861 144.225 45.1972 141.454 39.3556 137.96C25.6993 129.793 14.6246 117.24 7.89129 102.702C6.73505 100.21 5.70848 97.6586 4.81584 95.0576C2.3201 87.8448 0.94568 80.2807 0.74208 72.6377C0.110349 46.1197 14.9365 19.5145 38.2144 7.52116C61.4948 -4.4722 92.1194 -0.506119 110.895 17.9186C122.284 29.0954 128.874 44.2411 137.445 57.7722C146.017 71.3007 158.199 84.2242 173.912 86.1953C181.916 87.1994 190.292 85.2573 197.964 87.7833C202.212 89.1837 205.836 91.863 208.756 95.2769C210.718 97.5935 212.361 100.171 213.638 102.94C214.574 104.941 215.333 107.022 215.907 109.159C216.014 109.553 216.113 109.947 216.209 110.341C220.031 126.205 213.924 142.835 201.141 152.733Z" fill="#F2F2F2"/>
<path d="M73.2971 124.016H48.8597C45.1985 124.016 42.2305 127.032 42.2305 130.753V130.753C42.2305 134.475 45.1985 137.491 48.8597 137.491H73.2971C76.9583 137.491 79.9263 134.475 79.9263 130.753C79.9263 127.032 76.9583 124.016 73.2971 124.016Z" fill="#3F3D56"/>
<path d="M65.8868 134.059V145.27C63.3766 145.517 60.8466 145.467 58.3477 145.122V134.059H65.8868Z" fill="#3F3D56"/>
<path d="M91.2667 138.181C91.0614 138.21 90.8586 138.239 90.6532 138.274C82.4381 139.611 74.9405 144.118 66.689 145.181C66.4213 145.215 66.1561 145.247 65.8883 145.271C65.7739 145.281 65.6596 145.294 65.5452 145.302C63.5304 143.297 61.5156 141.162 59.623 138.95C58.5961 137.753 57.603 136.532 56.6697 135.296C54.2468 132.104 52.193 128.822 50.836 125.599C50.9738 124.053 50.0275 120.478 49.5751 117.74L49.5725 117.738C49.3801 116.588 49.2761 115.59 49.3723 114.948C49.9235 111.243 52.9001 111.668 53.8152 108.038C54.6407 107.342 55.5196 106.713 56.4436 106.159C56.5969 106.067 56.7529 105.974 56.9141 105.882L66.845 98.9062L70.6406 102.69L76.4172 108.45L82.6773 114.689L77.3635 120.145C77.3635 120.145 81.8038 125.348 86.9954 132.284C88.3889 134.146 89.8369 136.136 91.2667 138.181Z" fill="#2F2E41"/>
<path d="M176.895 134.059V166.419C174.444 167.198 171.915 167.695 169.355 167.901V134.059H176.895Z" fill="#3F3D56"/>
<path d="M186.649 131.414H162.211C158.55 131.414 155.582 134.431 155.582 138.152V138.152C155.582 141.873 158.55 144.89 162.211 144.89H186.649C190.31 144.89 193.278 141.873 193.278 138.152C193.278 134.431 190.31 131.414 186.649 131.414Z" fill="#3F3D56"/>
<path d="M127.201 148.787C125.888 147.979 124.552 147.188 123.194 146.417C123.028 146.324 122.862 146.229 122.695 146.137L123.59 145.748L126.002 144.694L126.026 144.684L126.052 144.773L127.201 148.787Z" fill="#FFB6B6"/>
<path d="M130.933 151.139C130.504 150.861 130.078 150.589 129.649 150.319H129.646C128.955 149.878 128.261 149.443 127.566 149.014C127.444 148.938 127.322 148.864 127.197 148.787C125.884 147.978 124.549 147.188 123.191 146.417C123.025 146.324 122.858 146.229 122.692 146.137C120.065 144.656 117.364 143.312 114.602 142.113C112.787 141.336 110.949 140.635 109.093 140.038H109.09L107.632 137.557L101.067 126.383L99.6246 123.928C99.6246 123.928 94.7033 125.408 87.7387 126.827C85.204 127.345 82.4015 127.852 79.4612 128.28C76.3182 128.735 73.0217 129.097 69.7461 129.271C68.1837 129.356 66.6264 129.398 65.0926 129.385C61.128 129.358 57.3195 128.98 53.984 128.082C52.8714 127.02 49.5177 125.574 47.1156 124.251H47.113C46.1043 123.696 45.2672 123.165 44.8278 122.692C42.2957 119.97 44.4587 117.848 42.2073 114.878C42.177 113.789 42.2318 112.699 42.3711 111.618C42.3945 111.438 42.4179 111.256 42.4465 111.071L43.1562 98.8213L48.4284 98.1131L56.4512 97.0351L65.142 95.8672L66.0987 103.482C66.0987 103.482 72.8657 103.133 81.4396 103.25C95.2103 103.44 113.637 104.835 116.133 110.823C116.367 111.385 116.601 111.953 116.835 112.522C117.391 113.88 117.942 115.245 118.488 116.617C120.467 121.585 122.354 126.6 124.078 131.34C125.149 134.289 126.157 137.132 127.085 139.793C127.832 141.933 128.523 143.957 129.155 145.82C129.732 147.521 130.254 149.088 130.72 150.494C130.793 150.713 130.863 150.93 130.933 151.139Z" fill="#2F2E41"/>
<path d="M82.4377 76.9211L65.7852 62.5467L76.6195 51.4023L84.1781 63.9857L112.196 69.6315C113.039 68.9871 114.048 68.6057 115.1 68.5339C116.152 68.4621 117.201 68.703 118.121 69.2272C119.041 69.7513 119.791 70.5361 120.279 71.4859C120.767 72.4357 120.973 73.5093 120.872 74.576C120.77 75.6427 120.365 76.6563 119.707 77.4932C119.048 78.3301 118.164 78.9542 117.163 79.2894C116.161 79.6245 115.085 79.6563 114.067 79.3807C113.048 79.1052 112.13 78.5343 111.424 77.7376L82.4377 76.9211Z" fill="#A0616A"/>
<path d="M51.0674 43.6531C49.1429 50.0164 67.4715 65.193 67.4715 65.193C67.6751 63.6654 78.0668 76.8385 78.7738 75.6455C80.7832 72.2549 82.9941 63.8736 85.3138 62.8024C86.6404 62.1898 79.0302 53.675 79.0302 53.675C79.0302 53.675 75.1481 48.4549 70.0225 41.8391C68.6076 39.9414 66.7432 38.4383 64.603 37.4699C62.4628 36.5015 60.1163 36.0992 57.782 36.3005C57.782 36.3005 52.9919 37.2898 51.0674 43.6531Z" fill="#3F3D56"/>
<path d="M59.1693 29.5707C65.3896 29.5707 70.4323 24.4455 70.4323 18.1232C70.4323 11.801 65.3896 6.67578 59.1693 6.67578C52.9489 6.67578 47.9062 11.801 47.9062 18.1232C47.9062 24.4455 52.9489 29.5707 59.1693 29.5707Z" fill="#A0616A"/>
<path d="M64.8041 37.138C67.2305 38.6042 68.682 41.2981 69.5153 44.0393C71.0579 49.1144 71.9864 54.3617 72.2804 59.665L73.1605 75.5424L84.0602 109.35C74.6138 117.474 39.1062 111.196 39.1062 111.196C39.1062 111.196 38.0162 110.827 39.1062 109.719C40.1961 108.611 41.2572 109.593 40.1673 108.485C39.0773 107.377 39.8287 108.611 40.192 107.503C40.5554 106.396 40.192 107.134 39.8287 106.765C39.4654 106.396 42.6414 103.072 42.6414 103.072L39.7348 83.6664L36.1016 44.5234C40.4615 38.9844 49.2297 35.7191 49.2297 35.7191L51.4953 31.5742L62.8234 32.4953L64.8041 37.138Z" fill="#3F3D56"/>
<path d="M68.4523 12.0379C69.3276 12.7015 69.9762 13.6274 70.3066 14.6853C70.4335 12.9565 70.4416 11.2207 70.3307 9.49074C70.198 8.27507 69.3559 8.00162 68.3808 7.68477C67.5002 7.3985 66.5044 7.07514 66.2365 5.895C62.696 2.39438 56.5328 2.5709 52.3149 3.79197C49.994 4.4639 48.6585 5.3272 48.539 5.83293L48.5143 5.93703L48.42 5.98493C46.631 6.8941 46.2827 9.76507 46.3057 12.0134C46.3493 16.2493 47.7883 21.0603 48.599 21.4511C48.6419 21.4718 48.6527 21.4637 48.6713 21.448C49.892 20.4565 51.3812 21.5233 52.0357 22.1033C52.4217 19.4705 53.6646 17.0452 55.5659 15.2147C57.4671 13.3841 59.9171 12.2539 62.5245 12.0046C63.376 11.921 64.2207 11.777 65.0525 11.5738C65.4744 11.4628 65.9082 11.405 66.344 11.4015C67.0942 11.3899 67.8299 11.612 68.4523 12.0379Z" fill="#2F2E41"/>
<path d="M54.2635 94.1715L50.8182 92.3781C50.6336 92.2444 50.5025 92.0477 50.4488 91.8238C50.3951 91.6 50.4224 91.364 50.5257 91.159C50.629 90.9539 50.8015 90.7935 51.0115 90.707C51.2216 90.6204 51.4553 90.6136 51.6699 90.6877L55.1153 92.4812C55.2999 92.6149 55.431 92.8116 55.4847 93.0354C55.5384 93.2592 55.5111 93.4952 55.4078 93.7003C55.3044 93.9053 55.132 94.0657 54.9219 94.1523C54.7118 94.2388 54.4781 94.2456 54.2635 94.1715Z" fill="#6C63FF"/>
<path d="M42.6716 89.3633L37.0039 67.9179L52.1495 65.0039L51.335 79.7239L71.235 100.55C72.2886 100.506 73.3319 100.775 74.2377 101.323C75.1436 101.872 75.8728 102.676 76.3366 103.639C76.8004 104.601 76.9786 105.68 76.8496 106.744C76.7206 107.807 76.2898 108.81 75.6099 109.629C74.93 110.448 74.0303 111.048 73.0205 111.357C72.0107 111.665 70.9345 111.668 69.923 111.366C68.9114 111.063 68.0084 110.468 67.3239 109.653C66.6395 108.837 66.2032 107.837 66.0682 106.775L42.6716 89.3633Z" fill="#A0616A"/>
<path d="M35.452 43.8766C30.3111 48.0016 36.9095 71.075 36.9095 71.075C37.9311 69.9355 39.1183 86.7768 40.367 86.2034C43.916 84.5736 50.4208 78.9535 52.9285 79.4116C54.3626 79.6735 52.8601 68.2719 52.8601 68.2719C52.8601 68.2719 52.5837 61.7344 52.0643 53.3302C51.9609 50.9515 51.2669 48.638 50.0471 46.6051C48.8273 44.5723 47.1213 42.8862 45.0878 41.7038C45.0878 41.7038 40.593 39.7516 35.452 43.8766Z" fill="#3F3D56"/>
<path d="M213.638 102.941L7.89186 102.703C6.73561 100.211 5.70904 97.6597 4.81641 95.0586L208.756 95.2779C210.719 97.5945 212.362 100.173 213.638 102.941Z" fill="#3F3D56"/>
<path d="M148.11 158.382C147.047 158.905 145.974 159.41 144.892 159.896C143.093 158.858 141.315 157.772 139.547 156.662L146.103 153.734L148.11 158.382Z" fill="#FFB6B6"/>
<path d="M195.911 121.969C194.846 123.423 193.746 124.847 192.612 126.242C191.567 127.529 190.495 128.791 189.394 130.028C188.939 130.541 188.479 131.051 188.008 131.556C187.143 132.499 186.258 133.426 185.354 134.338C183.727 134.859 180.43 135.775 176.897 136.632C174.326 137.252 171.63 137.842 169.358 138.217C168.086 138.449 166.799 138.588 165.508 138.634C163.974 138.648 162.417 138.605 160.854 138.521C159.092 138.426 157.326 138.278 155.582 138.087C151.046 137.604 146.652 136.851 142.862 136.077C141.473 135.797 140.168 135.511 138.967 135.234C136.693 134.713 134.79 134.227 133.412 133.857C131.86 133.445 130.976 133.178 130.976 133.178L127.089 139.794L125.072 143.227L123.59 145.75L123.195 146.419C123.028 146.326 122.862 146.231 122.696 146.138C120.068 144.657 117.368 143.314 114.605 142.114C112.791 141.337 110.953 140.637 109.097 140.04H109.094C108.384 139.813 107.672 139.599 106.957 139.403C107.181 138.793 107.407 138.178 107.636 137.559C108.062 136.404 108.497 135.239 108.941 134.063C109.9 131.516 110.893 128.932 111.915 126.361C112.752 124.25 113.605 122.146 114.468 120.072C114.865 119.116 115.674 118.276 116.805 117.538C117.345 117.192 117.909 116.885 118.492 116.619C121.729 115.121 126.497 114.146 131.751 113.519C132.185 113.469 132.621 113.419 133.061 113.371C137.41 112.906 142.025 112.666 146.34 112.555C148.5 112.499 150.585 112.478 152.525 112.476C153.151 112.476 153.761 112.477 154.352 112.481H154.355C155.954 112.489 157.425 112.513 158.72 112.539C158.972 112.544 159.217 112.552 159.456 112.558H159.458C159.619 112.56 159.778 112.566 159.934 112.568C162.765 112.642 164.502 112.732 164.502 112.732L165.175 107.363L165.313 106.28L165.443 105.249V105.246L165.458 105.117L165.565 105.114L167.437 105.077L183.17 104.766L191.765 104.594L190.403 110.528L188.154 120.321C188.383 121.869 195.989 120.656 195.911 121.969Z" fill="#2F2E41"/>
<path d="M150.046 157.402C149.404 157.735 148.757 158.063 148.107 158.38C147.044 158.903 145.971 159.408 144.888 159.894C143.089 158.855 141.311 157.769 139.543 156.66C136.658 154.847 133.801 152.971 130.936 151.14C130.507 150.862 130.08 150.59 129.652 150.321H129.649C128.469 148.54 127.265 146.685 126.051 144.775C126.033 144.748 126.017 144.722 126.002 144.695C125.69 144.209 125.379 143.719 125.071 143.226C123.129 140.135 121.176 136.911 119.281 133.619L124.08 131.341L133.003 127.108L134.542 126.379L138.966 135.233L142.913 143.131L143.791 144.888L150.046 157.402Z" fill="#2F2E41"/>
<path d="M151.393 114.891L174.141 92.5945L180.446 74.45L171.146 70.3398C166.369 74.9906 161.205 89.4764 161.205 89.4764L145.552 109.718C145.43 109.76 145.308 109.805 145.188 109.859C144.483 110.175 143.87 110.671 143.408 111.298C142.947 111.925 142.652 112.662 142.553 113.439C142.454 114.216 142.553 115.005 142.842 115.731C143.131 116.457 143.599 117.095 144.201 117.584C144.804 118.072 145.52 118.395 146.28 118.52C147.041 118.645 147.821 118.568 148.544 118.297C149.267 118.026 149.909 117.571 150.408 116.974C150.907 116.377 151.246 115.66 151.393 114.891Z" fill="#FFB8B8"/>
<path d="M168.527 72.3674L180.324 76.1737L180.368 76.1661C184.759 75.4186 188.402 68.1303 190.685 62.1478C191.436 60.1745 191.422 57.9849 190.646 56.0217C189.869 54.0585 188.389 52.4681 186.503 51.5721C185.107 50.9207 183.56 50.679 182.036 50.8744C180.513 51.0698 179.073 51.6944 177.881 52.6778L171.823 57.7085L168.527 72.3674Z" fill="#6C63FF"/>
<path d="M195.864 122.235L195.933 122.142C199.614 117.18 194.58 104.895 193.819 103.113L197.241 102.082L196.644 95.4598L196.357 92.5068L199.018 89.9386L199.027 89.873L200.857 76.6371L203.251 67.8769C204.154 64.5652 204.173 61.069 203.306 57.7473C202.44 54.4256 200.72 51.398 198.322 48.9754L193.427 44.0362L187.563 34.7072L177.731 34.4492L174.196 40.8327C170.908 41.5147 167.96 43.3474 165.865 46.0116C163.769 48.6758 162.66 52.0026 162.73 55.4125L163.063 72.4065L159.535 93.4622L159.436 97.2869L155.974 101.001L156.614 104.755L154.024 105.804L152.756 111.139C152.272 111.755 149.076 115.861 149.047 117.006C149.043 117.177 149.163 117.347 149.426 117.538C151.495 119.043 163.059 122.302 168.263 120.343C173.806 118.257 195.532 122.174 195.751 122.214L195.864 122.235Z" fill="#6C63FF"/>
<path d="M181.787 31.5948C188.981 31.5948 194.813 25.6676 194.813 18.356C194.813 11.0444 188.981 5.11719 181.787 5.11719C174.593 5.11719 168.762 11.0444 168.762 18.356C168.762 25.6676 174.593 31.5948 181.787 31.5948Z" fill="#FFB8B8"/>
<path d="M180.199 31.7676C182.216 31.7996 184.232 31.6564 186.225 31.3396C188.201 30.9312 192.62 27.6395 193.852 25.6587C194.767 24.187 195.353 21.8888 195.683 20.2201C196.127 18.0119 196.11 15.7334 195.633 13.5323C195.156 11.3312 194.229 9.25646 192.913 7.44246C192.407 6.68371 191.709 6.07802 190.892 5.68947C190.82 5.6607 190.745 5.63521 190.67 5.61341C189.48 5.29515 188.411 4.62263 187.599 3.68219C187.442 3.49198 187.271 3.31352 187.089 3.14822C186.172 2.36171 185.085 1.80693 183.917 1.52922C182.031 1.01624 179.302 1.52544 175.805 3.04413C174.048 3.80715 172.127 3.53101 170.649 3.20516C170.566 3.18889 170.481 3.19496 170.401 3.22277C170.321 3.25059 170.249 3.29918 170.194 3.3637C169.565 3.96369 168.736 4.29954 167.874 4.30374C167.345 4.32732 166.791 5.07074 166.121 6.04018C165.969 6.26025 165.792 6.51708 165.664 6.67329L165.647 6.37317L165.348 6.70798C164.878 7.23419 164.547 7.87266 164.386 8.56392C164.224 9.25519 164.237 9.97676 164.424 10.6615C164.611 11.3462 164.965 11.9717 165.453 12.4798C165.942 12.988 166.549 13.3622 167.218 13.5677C167.75 13.7113 168.294 13.7995 168.843 13.8308C169.176 13.8612 169.52 13.8927 169.849 13.9508C170.907 14.171 171.891 14.6663 172.704 15.3883C173.518 16.1103 174.133 17.0343 174.49 18.0702C174.575 18.3096 174.712 18.5261 174.892 18.703C175.072 18.8799 175.29 19.0124 175.528 19.0903C175.766 19.1681 176.019 19.1893 176.266 19.1522C176.514 19.1151 176.75 19.0207 176.956 18.8762C177.299 18.6044 177.702 18.4211 178.13 18.3418C178.559 18.2626 178.999 18.2897 179.415 18.4211C179.774 18.624 180.054 18.9464 180.207 19.334C180.393 19.7658 180.701 20.1315 181.093 20.3845C182.431 21.086 182.524 24.1939 182.043 26.7847C181.579 29.2819 180.663 31.0885 179.815 31.1778C179.162 31.2465 179.087 31.2936 179.04 31.411L178.998 31.5161L179.071 31.6144C179.432 31.7473 179.816 31.7996 180.199 31.7676Z" fill="#2F2E41"/>
<path d="M171.762 68.3644L166.74 58.1875C159.45 58.6936 144.981 67.2604 144.981 67.2604L117.607 73.1595C116.796 72.8426 115.917 72.7485 115.059 72.8866C114.201 73.0247 113.394 73.3901 112.719 73.946C112.044 74.502 111.525 75.2288 111.214 76.0534C110.903 76.878 110.812 77.7713 110.948 78.6433C111.085 79.5153 111.446 80.3352 111.994 81.0206C112.541 81.706 113.257 82.2326 114.069 82.5475C114.881 82.8623 115.76 82.9543 116.617 82.8142C117.475 82.674 118.281 82.3066 118.955 81.7491L153.777 79.2121L171.762 68.3644Z" fill="#FFB8B8"/>
<path d="M169.735 70.0366L182.852 60.1294L185.162 51.6669C185.61 50.0039 185.591 48.2468 185.107 46.5942C184.624 44.9415 183.695 43.4592 182.427 42.3148C180.697 40.7751 178.456 39.9607 176.158 40.0361C173.859 40.1114 171.675 41.071 170.046 42.7208C165.11 47.7282 159.48 54.7141 160.689 59.5583L160.702 59.6074L169.735 70.0366Z" fill="#6C63FF"/>
<path d="M153.498 96.5352H118.402V101.291H153.498V96.5352Z" fill="white"/>
<path d="M63.8071 96.5352H28.7109V101.291H63.8071V96.5352Z" fill="white"/>
<path d="M67.9062 73.6653V96.3108C67.9065 96.5994 68.0194 96.8761 68.2201 97.0801C68.4209 97.2842 68.6932 97.3989 68.9771 97.3991H101.995C102.279 97.3989 102.551 97.2842 102.752 97.0801C102.952 96.8761 103.065 96.5994 103.065 96.3108V73.6653C103.065 73.377 102.952 73.1007 102.751 72.8969C102.55 72.6931 102.278 72.5785 101.995 72.5781H68.9771C68.6934 72.5785 68.4214 72.6931 68.2207 72.8969C68.02 73.1007 67.9069 73.377 67.9062 73.6653Z" fill="#3F3D56"/>
<path d="M68.6836 73.9423V96.0266C68.6839 96.1808 68.7442 96.3286 68.8515 96.4376C68.9588 96.5467 69.1042 96.608 69.2559 96.6083H101.723C101.874 96.608 102.02 96.5467 102.127 96.4376C102.234 96.3286 102.295 96.1808 102.295 96.0266V73.9423C102.295 73.7879 102.235 73.6398 102.127 73.5305C102.02 73.4213 101.874 73.3597 101.723 73.3594H69.2559C69.104 73.3597 68.9585 73.4213 68.8512 73.5305C68.7439 73.6398 68.6836 73.7879 68.6836 73.9423Z" fill="#6C63FF"/>
<path d="M67.2166 100.725C67.2771 100.802 67.354 100.864 67.4415 100.907C67.529 100.95 67.6248 100.971 67.7218 100.971H103.076C103.173 100.971 103.268 100.949 103.355 100.906C103.443 100.864 103.519 100.803 103.58 100.726C103.641 100.65 103.685 100.561 103.707 100.465C103.73 100.37 103.732 100.27 103.712 100.174L103.163 97.5246C103.14 97.4165 103.091 97.316 103.02 97.2321C102.95 97.1482 102.859 97.0836 102.758 97.0443C102.684 97.0149 102.606 96.9999 102.527 97H68.2685C68.1895 96.9999 68.1111 97.0149 68.0376 97.0443C67.936 97.0836 67.8458 97.1482 67.775 97.2321C67.7043 97.316 67.6553 97.4165 67.6325 97.5246L67.0837 100.174C67.0642 100.27 67.066 100.37 67.089 100.465C67.112 100.56 67.1556 100.649 67.2166 100.725Z" fill="#2F2E41"/>
<path d="M101.315 98.1406H102.15C102.221 98.1406 102.277 98.0829 102.277 98.0116V97.6056C102.277 97.5343 102.221 97.4766 102.15 97.4766H101.315C101.245 97.4766 101.188 97.5343 101.188 97.6056V98.0116C101.188 98.0829 101.245 98.1406 101.315 98.1406Z" fill="#3F3D56"/>
<path d="M99.1357 98.1406H99.9707C100.041 98.1406 100.098 98.0829 100.098 98.0116V97.6056C100.098 97.5343 100.041 97.4766 99.9707 97.4766H99.1357C99.0656 97.4766 99.0088 97.5343 99.0088 97.6056V98.0116C99.0088 98.0829 99.0656 98.1406 99.1357 98.1406Z" fill="#3F3D56"/>
<path d="M96.9599 98.1406H97.795C97.8651 98.1406 97.9219 98.0829 97.9219 98.0116V97.6056C97.9219 97.5343 97.8651 97.4766 97.795 97.4766H96.9599C96.8898 97.4766 96.833 97.5343 96.833 97.6056V98.0116C96.833 98.0829 96.8898 98.1406 96.9599 98.1406Z" fill="#3F3D56"/>
<path d="M94.7802 98.1406H95.6153C95.6854 98.1406 95.7422 98.0829 95.7422 98.0116V97.6056C95.7422 97.5343 95.6854 97.4766 95.6153 97.4766H94.7802C94.7101 97.4766 94.6533 97.5343 94.6533 97.6056V98.0116C94.6533 98.0829 94.7101 98.1406 94.7802 98.1406Z" fill="#3F3D56"/>
<path d="M92.6005 98.1406H93.4356C93.5057 98.1406 93.5625 98.0829 93.5625 98.0116V97.6056C93.5625 97.5343 93.5057 97.4766 93.4356 97.4766H92.6005C92.5304 97.4766 92.4736 97.5343 92.4736 97.6056V98.0116C92.4736 98.0829 92.5304 98.1406 92.6005 98.1406Z" fill="#3F3D56"/>
<path d="M90.4247 98.1406H91.2598C91.3299 98.1406 91.3867 98.0829 91.3867 98.0116V97.6056C91.3867 97.5343 91.3299 97.4766 91.2598 97.4766H90.4247C90.3546 97.4766 90.2978 97.5343 90.2978 97.6056V98.0116C90.2978 98.0829 90.3546 98.1406 90.4247 98.1406Z" fill="#3F3D56"/>
<path d="M88.2451 98.1406H89.0801C89.1502 98.1406 89.207 98.0829 89.207 98.0116V97.6056C89.207 97.5343 89.1502 97.4766 89.0801 97.4766H88.2451C88.175 97.4766 88.1181 97.5343 88.1181 97.6056V98.0116C88.1181 98.0829 88.175 98.1406 88.2451 98.1406Z" fill="#3F3D56"/>
<path d="M86.0693 98.1406H86.9043C86.9744 98.1406 87.0312 98.0829 87.0312 98.0116V97.6056C87.0312 97.5343 86.9744 97.4766 86.9043 97.4766H86.0693C85.9992 97.4766 85.9424 97.5343 85.9424 97.6056V98.0116C85.9424 98.0829 85.9992 98.1406 86.0693 98.1406Z" fill="#3F3D56"/>
<path d="M83.8896 98.1406H84.7246C84.7947 98.1406 84.8516 98.0829 84.8516 98.0116V97.6056C84.8516 97.5343 84.7947 97.4766 84.7246 97.4766H83.8896C83.8195 97.4766 83.7627 97.5343 83.7627 97.6056V98.0116C83.7627 98.0829 83.8195 98.1406 83.8896 98.1406Z" fill="#3F3D56"/>
<path d="M81.7138 98.1406H82.5489C82.619 98.1406 82.6758 98.0829 82.6758 98.0116V97.6056C82.6758 97.5343 82.619 97.4766 82.5489 97.4766H81.7138C81.6437 97.4766 81.5869 97.5343 81.5869 97.6056V98.0116C81.5869 98.0829 81.6437 98.1406 81.7138 98.1406Z" fill="#3F3D56"/>
<path d="M79.538 98.1406H80.3731C80.4432 98.1406 80.5 98.0829 80.5 98.0116V97.6056C80.5 97.5343 80.4432 97.4766 80.3731 97.4766H79.538C79.4679 97.4766 79.4111 97.5343 79.4111 97.6056V98.0116C79.4111 98.0829 79.4679 98.1406 79.538 98.1406Z" fill="#3F3D56"/>
<path d="M77.3583 98.1406H78.1934C78.2635 98.1406 78.3203 98.0829 78.3203 98.0116V97.6056C78.3203 97.5343 78.2635 97.4766 78.1934 97.4766H77.3583C77.2883 97.4766 77.2314 97.5343 77.2314 97.6056V98.0116C77.2314 98.0829 77.2883 98.1406 77.3583 98.1406Z" fill="#3F3D56"/>
<path d="M75.1826 98.1406H76.0176C76.0877 98.1406 76.1445 98.0829 76.1445 98.0116V97.6056C76.1445 97.5343 76.0877 97.4766 76.0176 97.4766H75.1826C75.1125 97.4766 75.0556 97.5343 75.0556 97.6056V98.0116C75.0556 98.0829 75.1125 98.1406 75.1826 98.1406Z" fill="#3F3D56"/>
<path d="M73.0029 98.1406H73.8379C73.908 98.1406 73.9648 98.0829 73.9648 98.0116V97.6056C73.9648 97.5343 73.908 97.4766 73.8379 97.4766H73.0029C72.9328 97.4766 72.876 97.5343 72.876 97.6056V98.0116C72.876 98.0829 72.9328 98.1406 73.0029 98.1406Z" fill="#3F3D56"/>
<path d="M70.8232 98.1406H71.6582C71.7283 98.1406 71.7852 98.0829 71.7852 98.0116V97.6056C71.7852 97.5343 71.7283 97.4766 71.6582 97.4766H70.8232C70.7531 97.4766 70.6963 97.5343 70.6963 97.6056V98.0116C70.6963 98.0829 70.7531 98.1406 70.8232 98.1406Z" fill="#3F3D56"/>
<path d="M68.6474 98.1406H69.4825C69.5526 98.1406 69.6094 98.0829 69.6094 98.0116V97.6056C69.6094 97.5343 69.5526 97.4766 69.4825 97.4766H68.6474C68.5773 97.4766 68.5205 97.5343 68.5205 97.6056V98.0116C68.5205 98.0829 68.5773 98.1406 68.6474 98.1406Z" fill="#3F3D56"/>
<path d="M101.339 99.25H102.174C102.244 99.25 102.301 99.1922 102.301 99.121V98.715C102.301 98.6437 102.244 98.586 102.174 98.586H101.339C101.269 98.586 101.212 98.6437 101.212 98.715V99.121C101.212 99.1922 101.269 99.25 101.339 99.25Z" fill="#3F3D56"/>
<path d="M99.163 99.25H99.9981C100.068 99.25 100.125 99.1922 100.125 99.121V98.715C100.125 98.6437 100.068 98.586 99.9981 98.586H99.163C99.0929 98.586 99.0361 98.6437 99.0361 98.715V99.121C99.0361 99.1922 99.0929 99.25 99.163 99.25Z" fill="#3F3D56"/>
<path d="M96.9833 99.25H97.8184C97.8885 99.25 97.9453 99.1922 97.9453 99.121V98.715C97.9453 98.6437 97.8885 98.586 97.8184 98.586H96.9833C96.9132 98.586 96.8564 98.6437 96.8564 98.715V99.121C96.8564 99.1922 96.9132 99.25 96.9833 99.25Z" fill="#3F3D56"/>
<path d="M94.8036 99.25H95.6387C95.7088 99.25 95.7656 99.1922 95.7656 99.121V98.715C95.7656 98.6437 95.7088 98.586 95.6387 98.586H94.8036C94.7336 98.586 94.6767 98.6437 94.6767 98.715V99.121C94.6767 99.1922 94.7336 99.25 94.8036 99.25Z" fill="#3F3D56"/>
<path d="M92.6279 99.25H93.4629C93.533 99.25 93.5898 99.1922 93.5898 99.121V98.715C93.5898 98.6437 93.533 98.586 93.4629 98.586H92.6279C92.5578 98.586 92.5009 98.6437 92.5009 98.715V99.121C92.5009 99.1922 92.5578 99.25 92.6279 99.25Z" fill="#3F3D56"/>
<path d="M90.4482 99.25H91.2832C91.3533 99.25 91.4102 99.1922 91.4102 99.121V98.715C91.4102 98.6437 91.3533 98.586 91.2832 98.586H90.4482C90.3781 98.586 90.3213 98.6437 90.3213 98.715V99.121C90.3213 99.1922 90.3781 99.25 90.4482 99.25Z" fill="#3F3D56"/>
<path d="M88.2724 99.25H89.1075C89.1776 99.25 89.2344 99.1922 89.2344 99.121V98.715C89.2344 98.6437 89.1776 98.586 89.1075 98.586H88.2724C88.2023 98.586 88.1455 98.6437 88.1455 98.715V99.121C88.1455 99.1922 88.2023 99.25 88.2724 99.25Z" fill="#3F3D56"/>
<path d="M86.0927 99.25H86.9278C86.9979 99.25 87.0547 99.1922 87.0547 99.121V98.715C87.0547 98.6437 86.9979 98.586 86.9278 98.586H86.0927C86.0226 98.586 85.9658 98.6437 85.9658 98.715V99.121C85.9658 99.1922 86.0226 99.25 86.0927 99.25Z" fill="#3F3D56"/>
<path d="M83.9169 99.25H84.752C84.8221 99.25 84.8789 99.1922 84.8789 99.121V98.715C84.8789 98.6437 84.8221 98.586 84.752 98.586H83.9169C83.8468 98.586 83.79 98.6437 83.79 98.715V99.121C83.79 99.1922 83.8468 99.25 83.9169 99.25Z" fill="#3F3D56"/>
<path d="M81.7412 99.25H82.5762C82.6463 99.25 82.7031 99.1922 82.7031 99.121V98.715C82.7031 98.6437 82.6463 98.586 82.5762 98.586H81.7412C81.6711 98.586 81.6142 98.6437 81.6142 98.715V99.121C81.6142 99.1922 81.6711 99.25 81.7412 99.25Z" fill="#3F3D56"/>
<path d="M79.5615 99.25H80.3965C80.4666 99.25 80.5234 99.1922 80.5234 99.121V98.715C80.5234 98.6437 80.4666 98.586 80.3965 98.586H79.5615C79.4914 98.586 79.4345 98.6437 79.4345 98.715V99.121C79.4345 99.1922 79.4914 99.25 79.5615 99.25Z" fill="#3F3D56"/>
<path d="M77.3857 99.25H78.2207C78.2908 99.25 78.3477 99.1922 78.3477 99.121V98.715C78.3477 98.6437 78.2908 98.586 78.2207 98.586H77.3857C77.3156 98.586 77.2588 98.6437 77.2588 98.715V99.121C77.2588 99.1922 77.3156 99.25 77.3857 99.25Z" fill="#3F3D56"/>
<path d="M75.206 99.25H76.0411C76.1111 99.25 76.168 99.1922 76.168 99.121V98.715C76.168 98.6437 76.1111 98.586 76.0411 98.586H75.206C75.1359 98.586 75.0791 98.6437 75.0791 98.715V99.121C75.0791 99.1922 75.1359 99.25 75.206 99.25Z" fill="#3F3D56"/>
<path d="M73.0263 99.25H73.8614C73.9315 99.25 73.9883 99.1922 73.9883 99.121V98.715C73.9883 98.6437 73.9315 98.586 73.8614 98.586H73.0263C72.9562 98.586 72.8994 98.6437 72.8994 98.715V99.121C72.8994 99.1922 72.9562 99.25 73.0263 99.25Z" fill="#3F3D56"/>
<path d="M70.8505 99.25H71.6856C71.7557 99.25 71.8125 99.1922 71.8125 99.121V98.715C71.8125 98.6437 71.7557 98.586 71.6856 98.586H70.8505C70.7804 98.586 70.7236 98.6437 70.7236 98.715V99.121C70.7236 99.1922 70.7804 99.25 70.8505 99.25Z" fill="#3F3D56"/>
<path d="M68.6708 99.25H69.5059C69.576 99.25 69.6328 99.1922 69.6328 99.121V98.715C69.6328 98.6437 69.576 98.586 69.5059 98.586H68.6708C68.6007 98.586 68.5439 98.6437 68.5439 98.715V99.121C68.5439 99.1922 68.6007 99.25 68.6708 99.25Z" fill="#3F3D56"/>
<path d="M83.2635 100.574H91.7207C91.7908 100.574 91.8477 100.516 91.8477 100.445V100.039C91.8477 99.9679 91.7908 99.9102 91.7207 99.9102H83.2635C83.1934 99.9102 83.1366 99.9679 83.1366 100.039V100.445C83.1366 100.516 83.1934 100.574 83.2635 100.574Z" fill="#3F3D56"/>
</g>
<defs>
<clipPath id="clip0_510_929">
<rect width="216.614" height="167.286" fill="white" transform="translate(0.722656 0.679688)"/>
</clipPath>
</defs>
</svg>
