<svg width="16" height="16" viewBox="0 0 16 16" fill="none" xmlns="http://www.w3.org/2000/svg">
<g clip-path="url(#clip0_510_1051)">
<path d="M16 7.99675L8.00325 0L0 7.99675L8.00325 16L16 7.99675ZM8.00325 2.12644L10.947 5.07456C9.98262 4.81525 8.99075 4.682 7.99937 4.682C7.00375 4.68109 6.01245 4.81309 5.05175 5.0745L8.00325 2.12644ZM5.3815 11.2411C6.18412 10.7978 7.08638 10.5663 8.00325 10.5682C8.93531 10.5682 9.83044 10.8026 10.6249 11.2411L8.00325 13.8628L5.3815 11.2411ZM11.7183 10.1477C10.6071 9.43988 9.31689 9.064 7.99937 9.06431C6.68166 9.06357 5.39118 9.43948 4.28 10.1477L2.21631 8.084C3.88531 6.85787 5.89444 6.19231 8.00625 6.19231C10.1181 6.19231 12.125 6.85356 13.7962 8.08406L11.7183 10.1477Z" fill="#6C63FF"/>
</g>
<defs>
<clipPath id="clip0_510_1051">
<rect width="16" height="16" fill="white"/>
</clipPath>
</defs>
</svg>
