<svg width="49" height="47" viewBox="0 0 49 47" fill="none" xmlns="http://www.w3.org/2000/svg">
<rect width="49" height="47" rx="15" fill="#585858"/>
<path d="M24 13L33.5 18.5V29.5L24 35L14.5 29.5V18.5L24 13ZM24 27C24.7956 27 25.5587 26.6839 26.1213 26.1213C26.6839 25.5587 27 24.7956 27 24C27 23.2044 26.6839 22.4413 26.1213 21.8787C25.5587 21.3161 24.7956 21 24 21C23.2044 21 22.4413 21.3161 21.8787 21.8787C21.3161 22.4413 21 23.2044 21 24C21 24.7956 21.3161 25.5587 21.8787 26.1213C22.4413 26.6839 23.2044 27 24 27Z" fill="#F7F7F7"/>
</svg>
