<svg width="108" height="155" viewBox="0 0 108 155" fill="none" xmlns="http://www.w3.org/2000/svg">
<path d="M103.596 11.2591C104.908 12.2626 108.151 13.8518 107.967 15.7525C107.718 18.3189 105.108 17.4091 103.43 16.8379C100.129 15.7147 96.0687 11.956 92.6994 11.9313C103.131 36.6637 104.584 63.4652 96.3121 89.0383C88.0848 114.474 70.6945 140.044 44.9281 150.213C32.3169 155.19 18.4202 156.701 5.54778 151.432C4.44322 150.98 -1.12036 148.998 0.532882 147.215C1.3947 146.285 8.51328 148.9 9.8566 149.169C16.8398 150.567 23.6683 150.673 30.6509 149.367C54.4431 144.916 73.2747 125.679 83.7799 104.894C90.739 91.1247 94.7582 75.4886 95.5486 60.014C95.9567 52.0265 95.6069 43.8299 94.0513 35.9583C92.7393 29.319 90.8379 18.348 86.2134 13.098C83.2787 18.4247 85.4559 26.8094 83.3141 32.5602C82.1796 35.6069 78.8049 37.5085 77.3139 33.6476C76.105 30.5174 78.101 24.9306 78.6212 21.7243C79.2015 18.1466 79.8947 14.6081 80.8074 11.1011C81.4769 8.5286 81.8402 2.7299 84.2573 1.29736C88.5313 -1.23573 100.151 8.79518 103.596 11.2591C102.159 10.2311 104.968 12.3082 103.596 11.2591Z" fill="#66B848"/>
</svg>
