<svg width="173" height="75" viewBox="0 0 173 75" fill="none" xmlns="http://www.w3.org/2000/svg">
<path d="M172.154 53.059C172.223 51.4091 173.079 47.9004 171.501 46.8247C169.371 45.3725 168.398 47.9598 167.762 49.6149C166.512 52.8693 166.799 58.3949 164.66 60.9988C152.343 37.1494 132.686 18.8724 107.747 8.85113C82.941 -1.11621 52.165 -4.13129 27.8559 9.14928C15.9579 15.6494 5.89839 25.3555 1.70353 38.6171C1.34354 39.755 -0.696226 45.2978 1.73178 45.1695C2.99753 45.1026 5.5472 37.9605 6.20085 36.7565C9.59829 30.4973 13.8896 25.1846 19.3639 20.6575C38.017 5.23228 64.8515 3.08526 87.5434 8.32494C102.575 11.796 117.159 18.7208 129.552 28.0223C135.948 32.8233 142.02 38.3404 147.071 44.5755C151.33 49.8345 158.54 58.3198 159.611 65.2337C153.64 64.0772 148.594 57.036 142.805 54.9988C139.739 53.9193 136.117 55.2939 138.128 58.9114C139.758 61.8442 145.328 63.8883 148.124 65.5418C151.243 67.3869 154.405 69.1202 157.683 70.6647C160.088 71.7977 164.775 75.2316 167.423 74.2923C172.105 72.6313 171.841 57.2829 172.154 53.059C172.023 54.8213 172.226 51.3341 172.154 53.059Z" fill="#66B848"/>
</svg>
