<svg width="82" height="172" viewBox="0 0 82 172" fill="none" xmlns="http://www.w3.org/2000/svg">
<path d="M21.5115 171.17C23.1534 171.346 26.5994 172.427 27.775 170.922C29.3622 168.89 26.8433 167.752 25.2329 167.011C22.0663 165.552 16.5337 165.48 14.0739 163.178C38.6712 152.431 58.1832 134 69.7991 109.762C81.3526 85.654 86.3551 55.1381 74.6773 30.0197C68.9617 17.7256 59.9276 7.05835 46.9657 2.01316C45.8535 1.58021 40.4545 -0.814358 40.4252 1.61686C40.4099 2.88428 47.3719 5.8913 48.531 6.62157C54.5569 10.4174 59.5805 15.0438 63.7434 20.7999C77.9278 40.4132 78.3318 67.3304 71.6331 89.6352C67.1955 104.411 59.3404 118.515 49.2556 130.279C44.0503 136.351 38.1514 142.053 31.6022 146.689C26.0783 150.599 17.1437 157.243 10.1749 157.865C11.7159 151.981 19.0692 147.402 21.4772 141.757C22.753 138.767 21.6159 135.064 17.8758 136.836C14.8435 138.273 12.4429 143.699 10.6117 146.381C8.56836 149.375 6.63387 152.418 4.88023 155.589C3.59385 157.915 -0.136493 162.37 0.629317 165.073C1.98344 169.853 17.3168 170.584 21.5115 171.17C19.7614 170.925 23.2281 171.354 21.5115 171.17Z" fill="#66B848"/>
</svg>
