<svg width="61" height="61" viewBox="0 0 61 61" fill="none" xmlns="http://www.w3.org/2000/svg">
<path d="M30.4997 5.08398C33.0131 5.08398 35.4702 5.82931 37.56 7.22572C39.6499 8.62213 41.2788 10.6069 42.2406 12.929C43.2025 15.2512 43.4542 17.8064 42.9638 20.2716C42.4735 22.7368 41.2631 25.0012 39.4858 26.7785C37.7085 28.5558 35.4441 29.7661 32.9789 30.2565C30.5138 30.7468 27.9585 30.4951 25.6364 29.5333C23.3143 28.5714 21.3295 26.9426 19.9331 24.8527C18.5367 22.7628 17.7913 20.3058 17.7913 17.7923L17.804 17.2408C17.9462 13.969 19.3458 10.8784 21.7112 8.61349C24.0765 6.34857 27.2248 5.08417 30.4997 5.08398ZM35.583 35.584C38.9535 35.584 42.1859 36.9229 44.5692 39.3062C46.9524 41.6894 48.2913 44.9219 48.2913 48.2923V50.834C48.2913 52.1822 47.7558 53.4751 46.8025 54.4284C45.8492 55.3817 44.5562 55.9173 43.208 55.9173H17.7913C16.4432 55.9173 15.1502 55.3817 14.1969 54.4284C13.2436 53.4751 12.708 52.1822 12.708 50.834V48.2923C12.708 44.9219 14.0469 41.6894 16.4302 39.3062C18.8135 36.9229 22.0459 35.584 25.4163 35.584H35.583Z" fill="#585858"/>
</svg>
