<svg width="124" height="199" viewBox="0 0 124 199" fill="none" xmlns="http://www.w3.org/2000/svg">
<path d="M105.435 197.007C103.909 197.639 100.975 199.809 99.2704 198.33C96.969 196.332 98.9834 194.334 100.266 193.04C102.788 190.494 108.124 188.982 109.644 185.62C81.7661 179.236 55.9328 162.438 35.5736 136.723C15.3238 111.146 -0.981551 76.2881 0.908538 43.5195C1.83361 27.481 6.58613 12.5134 17.2568 3.19215C18.1724 2.39229 22.5069 -1.8375 23.448 1.03496C23.9386 2.5324 18.3189 7.89101 17.4695 9.05519C13.0533 15.1067 9.9205 21.8835 8.04612 29.7763C1.65953 56.6704 11.373 88.6607 26.24 113.354C36.0886 129.712 48.998 144.394 63.19 155.727C70.5153 161.577 78.374 166.809 86.4627 170.61C93.2852 173.816 104.44 179.382 111.429 178.32C107.727 171.748 98.8794 168.221 94.4262 162.156C92.0668 158.943 91.7789 154.263 96.0698 155.397C99.5485 156.317 103.912 162.124 106.695 164.83C109.799 167.848 112.817 170.954 115.707 174.258C117.827 176.682 123.116 180.996 123.388 184.396C123.87 190.408 109.281 195.23 105.435 197.007C107.04 196.265 103.84 197.667 105.435 197.007Z" fill="#66B848"/>
</svg>
